# Blender 5.0.0
# www.blender.org
mtllib shelf2.mtl
o EndShelf
v 1.632209 -0.060521 -0.699761
v 1.632209 7.379051 -0.699761
v 1.632209 4.021534 -0.699761
v 1.632209 5.700292 -0.699761
v 1.632209 2.330156 -0.699761
v 1.632209 0.928175 -0.699761
v 1.632209 2.564674 -0.699761
v 1.632209 4.246432 -0.699761
v 1.632209 5.909958 -0.699761
v 1.632209 7.116537 -0.699761
v 1.632209 7.379051 -0.500970
v 1.632209 4.021534 -0.500970
v 1.632209 5.700292 -0.500970
v 1.632209 2.330156 -0.500970
v 1.632209 0.928175 -0.500970
v 1.632209 2.564674 -0.500970
v 1.632209 4.246432 -0.500970
v 1.632209 5.909958 -0.500970
v 1.632209 7.116537 -0.500970
v 1.632209 -0.060521 -0.500970
v -1.683126 0.928175 -0.500970
v -1.683126 2.330156 -0.500970
v -1.683126 2.564674 -0.500970
v -1.683126 4.021534 -0.500970
v -1.683126 4.246432 -0.500970
v -1.683126 5.700292 -0.500970
v -1.683126 5.909958 -0.500970
v -1.683126 7.116537 -0.500970
v -1.683126 7.379051 -0.500970
v -1.683126 7.379051 -0.699761
v -1.683126 -0.060521 -0.500970
v -1.683126 -0.060521 -0.699761
v 1.632209 -0.060521 0.780277
v 1.023271 -0.060521 0.964671
v 1.594578 -0.060521 0.852491
v 1.466259 -0.060521 0.914419
v 1.261752 -0.060521 0.953276
v 1.023271 7.379051 0.876982
v 1.632209 7.379051 0.683333
v 1.261752 7.379051 0.865014
v 1.466259 7.379051 0.824208
v 1.594578 7.379051 0.759172
v 1.632209 4.021534 0.767530
v 1.023271 4.021534 0.964671
v 1.594578 4.021534 0.844737
v 1.466259 4.021534 0.910945
v 1.261752 4.021534 0.952488
v 1.632209 5.700292 0.765581
v 1.023271 5.700292 0.964671
v 1.594578 5.700292 0.843551
v 1.466259 5.700292 0.910414
v 1.261752 5.700292 0.952367
v 1.632209 2.330156 0.768578
v 1.023271 2.330156 0.964671
v 1.594578 2.330156 0.845374
v 1.466259 2.330156 0.911231
v 1.261752 2.330156 0.952552
v 1.023271 0.928175 0.876982
v 1.632209 0.928175 0.692588
v 1.261752 0.928175 0.865587
v 1.466259 0.928175 0.826730
v 1.594578 0.928175 0.764803
v 1.023271 2.564674 0.876982
v 1.632209 2.564674 0.680889
v 1.261752 2.564674 0.864864
v 1.466259 2.564674 0.823542
v 1.594578 2.564674 0.757685
v 1.023271 4.246432 0.876982
v 1.632209 4.246432 0.679841
v 1.261752 4.246432 0.864799
v 1.466259 4.246432 0.823256
v 1.594578 4.246432 0.757048
v 1.023271 5.909958 0.876982
v 1.632209 5.909958 0.677892
v 1.261752 5.909958 0.864678
v 1.466259 5.909958 0.822725
v 1.594578 5.909958 0.755862
v 1.632209 7.116537 0.771021
v 1.023271 7.116537 0.964671
v 1.594578 7.116537 0.846861
v 1.466259 7.116537 0.911896
v 1.261752 7.116537 0.952703
v -1.683126 7.379051 0.683332
v -1.074189 7.379051 0.876982
v -1.645495 7.379051 0.759172
v -1.517176 7.379051 0.824207
v -1.312669 7.379051 0.865014
v -1.074189 4.021534 0.964670
v -1.683126 4.021534 0.767530
v -1.312669 4.021534 0.952488
v -1.517176 4.021534 0.910945
v -1.645496 4.021534 0.844737
v -1.074189 5.700292 0.964670
v -1.683126 5.700292 0.765581
v -1.312669 5.700292 0.952367
v -1.517176 5.700292 0.910414
v -1.645496 5.700292 0.843551
v -1.074189 2.330156 0.964670
v -1.683126 2.330156 0.768578
v -1.312669 2.330156 0.952552
v -1.517176 2.330156 0.911230
v -1.645496 2.330156 0.845374
v -1.683126 0.928175 0.692587
v -1.074189 0.928175 0.876982
v -1.645495 0.928175 0.764802
v -1.517176 0.928175 0.826730
v -1.312669 0.928175 0.865586
v -1.683126 2.564674 0.680889
v -1.074189 2.564674 0.876982
v -1.645495 2.564674 0.757685
v -1.517176 2.564674 0.823541
v -1.312669 2.564674 0.864863
v -1.683126 4.246432 0.679841
v -1.074189 4.246432 0.876982
v -1.645495 4.246432 0.757048
v -1.517176 4.246432 0.823256
v -1.312669 4.246432 0.864799
v -1.683126 5.909958 0.677892
v -1.074189 5.909958 0.876982
v -1.645495 5.909958 0.755862
v -1.517176 5.909958 0.822725
v -1.312669 5.909958 0.864678
v -1.074189 7.116537 0.964670
v -1.683126 7.116537 0.771021
v -1.312669 7.116537 0.952703
v -1.517176 7.116537 0.911896
v -1.645496 7.116537 0.846861
v -1.074189 -0.060521 0.964670
v -1.683126 -0.060521 0.780276
v -1.312669 -0.060521 0.953275
v -1.517176 -0.060521 0.914419
v -1.645496 -0.060521 0.852491
vn -0.0000 -1.0000 -0.0000
vn 1.0000 -0.0000 -0.0000
vn -0.0000 1.0000 -0.0000
vn -0.0000 -0.0000 1.0000
vn 0.8861 0.1469 0.4397
vn 0.4333 0.2855 0.8548
vn 0.1860 0.3113 0.9319
vn 0.0475 0.3165 0.9474
vn 0.8861 0.0410 0.4617
vn 0.4333 0.0796 0.8977
vn 0.1860 0.0868 0.9787
vn 0.0475 0.0882 0.9950
vn 0.8861 0.1623 0.4342
vn 0.4333 0.3157 0.8442
vn 0.1860 0.3441 0.9203
vn 0.0475 0.3498 0.9356
vn 0.8861 0.1684 0.4319
vn 0.4333 0.3274 0.8397
vn 0.1860 0.3569 0.9154
vn 0.0475 0.3629 0.9306
vn 0.8861 0.1789 0.4277
vn 0.4333 0.3478 0.8315
vn 0.1860 0.3791 0.9065
vn 0.0475 0.3854 0.9215
vn -0.8861 0.1469 0.4397
vn -0.4333 0.2855 0.8548
vn -0.1860 0.3113 0.9319
vn -0.0475 0.3165 0.9474
vn -0.8861 0.1789 0.4276
vn -0.4333 0.3478 0.8315
vn -0.1860 0.3791 0.9065
vn -0.0475 0.3854 0.9215
vn -0.8861 0.1684 0.4319
vn -0.4333 0.3274 0.8397
vn -0.1860 0.3569 0.9154
vn -0.0475 0.3629 0.9306
vn -0.8861 0.1623 0.4342
vn -0.4333 0.3157 0.8442
vn -0.1860 0.3441 0.9203
vn -0.0475 0.3498 0.9356
vn -0.8861 0.0410 0.4617
vn -0.4333 0.0796 0.8977
vn -0.1860 0.0868 0.9787
vn -0.0475 0.0882 0.9950
vn -0.0000 0.0883 0.9961
vn -0.0000 0.3168 0.9485
vn -0.0000 0.3633 0.9317
vn -0.0000 0.3858 0.9226
vn -0.0000 0.3502 0.9367
vn -1.0000 -0.0000 -0.0000
vn 0.8861 0.1789 0.4276
vn -0.8861 0.1789 0.4277
vn -0.0000 1.0000 0.0001
vn -0.0000 -1.0000 0.0001
vt 0.857567 0.695338
vt 0.844813 0.973295
vt 0.844813 0.695338
vt 0.079866 0.314953
vt 0.164075 0.301079
vt 0.164075 0.314953
vt 0.178708 0.301079
vt 0.178708 0.314953
vt 0.280175 0.314953
vt 0.295871 0.301079
vt 0.295871 0.314953
vt 0.397548 0.314953
vt 0.413916 0.301079
vt 0.413916 0.314953
vt 0.495523 0.160915
vt 0.564526 0.147041
vt 0.564526 0.160915
vt 0.495523 0.147041
vt 0.280175 0.301079
vt 0.397548 0.301079
vt 0.857567 0.973295
vt 0.061544 0.314953
vt 0.079866 0.301079
vt 0.703732 0.526841
vt 0.370183 0.586791
vt 0.370183 0.526841
vt 0.703732 0.652831
vt 0.370183 0.717005
vt 0.370183 0.652831
vt 0.703732 0.782305
vt 0.370183 0.846249
vt 0.370183 0.782305
vt 0.703732 0.910376
vt 0.370183 0.955282
vt 0.370183 0.910376
vt 0.079866 0.212305
vt 0.061544 0.213132
vt 0.079866 0.207012
vt 0.061544 0.208593
vt 0.079866 0.202473
vt 0.061544 0.205745
vt 0.079866 0.199625
vt 0.061544 0.204910
vt 0.079866 0.198790
vt 0.564526 0.057621
vt 0.495523 0.058701
vt 0.564526 0.052581
vt 0.495523 0.054379
vt 0.564526 0.048259
vt 0.495523 0.051667
vt 0.564526 0.045547
vt 0.495523 0.050871
vt 0.564526 0.044751
vt 0.413916 0.212475
vt 0.397548 0.213236
vt 0.413916 0.207116
vt 0.397548 0.208639
vt 0.413916 0.202519
vt 0.397548 0.205755
vt 0.413916 0.199635
vt 0.397548 0.204910
vt 0.413916 0.198790
vt 0.295871 0.212548
vt 0.280175 0.213280
vt 0.295871 0.207160
vt 0.280175 0.208659
vt 0.295871 0.202539
vt 0.280175 0.205760
vt 0.295871 0.199640
vt 0.280175 0.204910
vt 0.295871 0.198790
vt 0.178708 0.212684
vt 0.164075 0.213363
vt 0.178708 0.207243
vt 0.164075 0.208696
vt 0.178708 0.202576
vt 0.164075 0.205768
vt 0.178708 0.199648
vt 0.164075 0.204910
vt 0.178708 0.198790
vt 0.061544 0.213132
vt 0.061544 0.218425
vt 0.061544 0.208593
vt 0.079866 0.202473
vt 0.061544 0.205745
vt 0.079866 0.199625
vt 0.164075 0.218804
vt 0.164075 0.208696
vt 0.295871 0.212548
vt 0.280175 0.213280
vt 0.280175 0.218668
vt 0.295871 0.199640
vt 0.413916 0.212475
vt 0.397548 0.218595
vt 0.413916 0.207116
vt 0.397548 0.205755
vt 0.564526 0.057621
vt 0.495523 0.063741
vt 0.564526 0.048259
vt 0.495523 0.051667
vt 0.564526 0.045547
vt 0.564526 0.044751
vt 0.495523 0.063741
vt 0.757980 0.696390
vt 0.762613 0.973295
vt 0.750783 0.922242
vt 0.079866 0.198790
vt 0.061544 0.218425
vt 0.759795 0.709251
vt 0.757177 0.942236
vt 0.754230 0.959382
vt 0.751565 0.726397
vt 0.295871 0.198790
vt 0.754264 0.959382
vt 0.751573 0.726397
vt 0.178708 0.198790
vt 0.732682 0.690499
vt 0.763364 0.973295
vt 0.397548 0.218595
vt 0.413916 0.198790
vt 0.371445 0.482762
vt 0.642468 0.478855
vt 0.703732 0.485277
vt 0.407454 0.605190
vt 0.695384 0.605776
vt 0.407454 0.734673
vt 0.695384 0.735255
vt 0.371445 0.866608
vt 0.642468 0.862390
vt 0.703732 0.869323
vt 0.754169 0.959382
vt 0.751551 0.726397
vt 0.077854 0.324211
vt 0.056837 0.419026
vt 0.056837 0.324211
vt 0.652448 0.308296
vt 0.652448 0.324211
vt 0.573293 0.419767
vt 0.401480 0.324211
vt 0.382705 0.418831
vt 0.382705 0.324211
vt 0.289507 0.324211
vt 0.271501 0.418747
vt 0.271501 0.324211
vt 0.177567 0.324211
vt 0.160781 0.418591
vt 0.160781 0.324211
vt 0.051374 0.452135
vt 0.320176 0.468050
vt 0.302171 0.468050
vt 0.061544 0.301079
vt 0.703732 0.586791
vt 0.703732 0.717005
vt 0.703732 0.846249
vt 0.703732 0.955282
vt 0.750783 0.746391
vt 0.751514 0.726397
vt 0.751544 0.701810
vt 0.762613 0.695338
vt 0.757980 0.970140
vt 0.754007 0.959382
vt 0.751514 0.942236
vt 0.768833 0.695338
vt 0.763967 0.698493
vt 0.757177 0.726397
vt 0.756409 0.746391
vt 0.756409 0.922242
vt 0.759795 0.959382
vt 0.763967 0.970140
vt 0.768833 0.973295
vt 0.763431 0.973295
vt 0.758478 0.970140
vt 0.751565 0.942236
vt 0.737120 0.703870
vt 0.732585 0.697572
vt 0.720870 0.697281
vt 0.763556 0.973295
vt 0.758554 0.970140
vt 0.751573 0.942236
vt 0.734994 0.709989
vt 0.732405 0.704704
vt 0.720574 0.709004
vt 0.751561 0.726397
vt 0.738272 0.698912
vt 0.721029 0.685656
vt 0.758437 0.970140
vt 0.754212 0.959382
vt 0.751561 0.942236
vt 0.370183 0.485277
vt 0.375749 0.479439
vt 0.407454 0.479003
vt 0.431447 0.478855
vt 0.666461 0.479003
vt 0.695384 0.479730
vt 0.699946 0.482762
vt 0.370183 0.611674
vt 0.371445 0.609000
vt 0.375749 0.605466
vt 0.431447 0.604845
vt 0.642468 0.604845
vt 0.666461 0.605190
vt 0.699946 0.609000
vt 0.703732 0.611674
vt 0.370183 0.741185
vt 0.371445 0.738496
vt 0.375749 0.734943
vt 0.431447 0.734320
vt 0.642468 0.734320
vt 0.666461 0.734673
vt 0.699946 0.738496
vt 0.703732 0.741185
vt 0.370183 0.869323
vt 0.375749 0.863020
vt 0.407454 0.862758
vt 0.431447 0.862390
vt 0.666461 0.862758
vt 0.695384 0.863335
vt 0.699946 0.866608
vt 0.763207 0.973295
vt 0.758342 0.970140
vt 0.751551 0.942236
vt 0.740980 0.710757
vt 0.758342 0.696390
vt 0.763207 0.695338
vt 0.077854 0.426047
vt 0.573293 0.324211
vt 0.652448 0.426787
vt 0.401480 0.425851
vt 0.289507 0.425767
vt 0.177567 0.425611
vt 0.072391 0.468050
vt 0.051374 0.468050
vt 0.646984 0.452135
vt 0.567830 0.468050
vt 0.455587 0.468050
vt 0.168989 0.468050
vt 0.185775 0.468050
vt 0.436812 0.468050
s 0
usemtl Material.001
f 32/1/1 20/2/1 31/3/1
f 10/4/2 18/5/2 9/6/2
f 9/6/2 13/7/2 4/8/2
f 8/9/2 12/10/2 3/11/2
f 7/12/2 14/13/2 5/14/2
f 6/15/2 20/16/2 1/17/2
f 5/14/2 15/18/2 6/15/2
f 4/8/2 17/19/2 8/9/2
f 3/11/2 16/20/2 7/12/2
f 29/3/3 2/21/3 30/1/3
f 2/22/2 19/23/2 10/4/2
f 15/24/4 22/25/4 21/26/4
f 16/27/4 24/28/4 23/29/4
f 17/30/4 26/31/4 25/32/4
f 18/33/4 28/34/4 27/35/4
f 78/36/5 42/37/5 80/38/5
f 80/38/6 41/39/6 81/40/6
f 81/40/7 40/41/7 82/42/7
f 82/42/8 38/43/8 79/44/8
f 33/45/9 62/46/9 35/47/9
f 35/47/10 61/48/10 36/49/10
f 36/49/11 60/50/11 37/51/11
f 37/51/12 58/52/12 34/53/12
f 53/54/13 67/55/13 55/56/13
f 55/56/14 66/57/14 56/58/14
f 56/58/15 65/59/15 57/60/15
f 57/60/16 63/61/16 54/62/16
f 43/63/17 72/64/17 45/65/17
f 45/65/18 71/66/18 46/67/18
f 46/67/19 70/68/19 47/69/19
f 47/69/20 68/70/20 44/71/20
f 48/72/21 77/73/21 50/74/21
f 50/74/22 76/75/22 51/76/22
f 51/76/23 75/77/23 52/78/23
f 52/78/24 73/79/24 49/80/24
f 124/36/25 85/81/25 83/82/25
f 127/38/26 86/83/26 85/81/26
f 126/84/27 87/85/27 86/83/27
f 125/86/28 84/43/28 87/85/28
f 94/72/29 120/73/29 118/87/29
f 97/74/30 121/88/30 120/73/30
f 96/76/31 122/77/31 121/88/31
f 95/78/32 119/79/32 122/77/32
f 89/89/33 115/90/33 113/91/33
f 92/65/34 116/66/34 115/90/34
f 91/67/35 117/68/35 116/66/35
f 90/92/36 114/70/36 117/68/36
f 99/93/37 110/55/37 108/94/37
f 102/95/38 111/57/38 110/55/38
f 101/58/39 112/96/39 111/57/39
f 100/60/40 109/61/40 112/96/40
f 129/97/41 105/46/41 103/98/41
f 132/47/42 106/48/42 105/46/42
f 131/99/43 107/100/43 106/48/43
f 130/101/44 104/52/44 107/100/44
f 58/52/45 128/102/45 34/53/45
f 20/16/2 59/103/2 33/45/2
f 132/104/1 33/105/1 34/106/1
f 38/43/46 123/107/46 79/44/46
f 19/23/2 39/108/2 78/36/2
f 86/109/3 40/110/3 11/2/3
f 46/111/1 90/112/1 24/3/1
f 12/10/2 69/91/2 43/63/2
f 68/70/47 88/113/47 44/71/47
f 51/114/1 95/115/1 26/3/1
f 13/7/2 74/87/2 48/72/2
f 73/79/48 93/116/48 49/80/48
f 102/117/1 53/118/1 54/106/1
f 14/13/2 64/119/2 53/54/2
f 63/61/49 98/120/49 54/62/49
f 105/121/3 58/122/3 59/123/3
f 112/124/3 66/125/3 23/29/3
f 117/126/3 71/127/3 25/32/3
f 120/128/3 73/129/3 74/130/3
f 81/131/1 125/132/1 28/3/1
f 28/133/50 83/134/50 29/135/50
f 32/136/50 31/137/50 103/138/50
f 22/139/50 108/140/50 23/141/50
f 24/142/50 113/143/50 25/144/50
f 26/145/50 118/146/50 27/147/50
f 30/148/50 24/149/50 25/150/50
f 32/1/1 1/21/1 20/2/1
f 10/4/2 19/23/2 18/5/2
f 9/6/2 18/5/2 13/7/2
f 8/9/2 17/19/2 12/10/2
f 7/12/2 16/20/2 14/13/2
f 6/15/2 15/18/2 20/16/2
f 5/14/2 14/13/2 15/18/2
f 4/8/2 13/7/2 17/19/2
f 3/11/2 12/10/2 16/20/2
f 29/3/3 11/2/3 2/21/3
f 2/22/2 11/151/2 19/23/2
f 15/24/4 14/152/4 22/25/4
f 16/27/4 12/153/4 24/28/4
f 17/30/4 13/154/4 26/31/4
f 18/33/4 19/155/4 28/34/4
f 78/36/5 39/108/5 42/37/5
f 80/38/6 42/37/6 41/39/6
f 81/40/7 41/39/7 40/41/7
f 82/42/8 40/41/8 38/43/8
f 33/45/9 59/103/9 62/46/9
f 35/47/10 62/46/10 61/48/10
f 36/49/11 61/48/11 60/50/11
f 37/51/12 60/50/12 58/52/12
f 53/54/13 64/119/13 67/55/13
f 55/56/14 67/55/14 66/57/14
f 56/58/15 66/57/15 65/59/15
f 57/60/16 65/59/16 63/61/16
f 43/63/17 69/91/17 72/64/17
f 45/65/18 72/64/18 71/66/18
f 46/67/19 71/66/19 70/68/19
f 47/69/20 70/68/20 68/70/20
f 48/72/51 74/87/51 77/73/51
f 50/74/22 77/73/22 76/75/22
f 51/76/23 76/75/23 75/77/23
f 52/78/24 75/77/24 73/79/24
f 124/36/25 127/38/25 85/81/25
f 127/38/26 126/84/26 86/83/26
f 126/84/27 125/86/27 87/85/27
f 125/86/28 123/107/28 84/43/28
f 94/72/52 97/74/52 120/73/52
f 97/74/30 96/76/30 121/88/30
f 96/76/31 95/78/31 122/77/31
f 95/78/32 93/116/32 119/79/32
f 89/89/33 92/65/33 115/90/33
f 92/65/34 91/67/34 116/66/34
f 91/67/35 90/92/35 117/68/35
f 90/92/36 88/113/36 114/70/36
f 99/93/37 102/95/37 110/55/37
f 102/95/38 101/58/38 111/57/38
f 101/58/39 100/60/39 112/96/39
f 100/60/40 98/120/40 109/61/40
f 129/97/41 132/47/41 105/46/41
f 132/47/42 131/99/42 106/48/42
f 131/99/43 130/101/43 107/100/43
f 130/101/44 128/102/44 104/52/44
f 58/52/45 104/52/45 128/102/45
f 20/16/2 15/18/2 59/103/2
f 34/106/1 128/156/1 130/157/1
f 130/157/1 131/158/1 132/104/1
f 132/104/1 129/159/1 31/3/1
f 31/3/1 20/2/1 33/105/1
f 33/105/1 35/160/1 36/161/1
f 36/161/1 37/162/1 34/106/1
f 34/106/1 130/157/1 132/104/1
f 132/104/1 31/3/1 33/105/1
f 33/105/1 36/161/1 34/106/1
f 38/43/46 84/43/46 123/107/46
f 19/23/2 11/151/2 39/108/2
f 11/2/3 29/3/3 83/163/3
f 83/163/3 85/164/3 86/109/3
f 86/109/3 87/165/3 84/166/3
f 84/166/3 38/167/3 40/110/3
f 40/110/3 41/168/3 42/169/3
f 42/169/3 39/170/3 11/2/3
f 11/2/3 83/163/3 86/109/3
f 86/109/3 84/166/3 40/110/3
f 40/110/3 42/169/3 11/2/3
f 24/3/1 12/2/1 43/171/1
f 43/171/1 45/172/1 46/111/1
f 46/111/1 47/173/1 44/106/1
f 44/106/1 88/156/1 90/112/1
f 90/112/1 91/174/1 92/175/1
f 92/175/1 89/176/1 24/3/1
f 24/3/1 43/171/1 46/111/1
f 46/111/1 44/106/1 90/112/1
f 90/112/1 92/175/1 24/3/1
f 12/10/2 17/19/2 69/91/2
f 68/70/47 114/70/47 88/113/47
f 26/3/1 13/2/1 48/177/1
f 48/177/1 50/178/1 51/114/1
f 51/114/1 52/179/1 49/106/1
f 49/106/1 93/156/1 95/115/1
f 95/115/1 96/180/1 97/181/1
f 97/181/1 94/182/1 26/3/1
f 26/3/1 48/177/1 51/114/1
f 51/114/1 49/106/1 95/115/1
f 95/115/1 97/181/1 26/3/1
f 13/7/2 18/5/2 74/87/2
f 73/79/48 119/79/48 93/116/48
f 54/106/1 98/156/1 100/183/1
f 100/183/1 101/184/1 102/117/1
f 102/117/1 99/185/1 22/3/1
f 22/3/1 14/2/1 53/118/1
f 53/118/1 55/186/1 56/187/1
f 56/187/1 57/188/1 54/106/1
f 54/106/1 100/183/1 102/117/1
f 102/117/1 22/3/1 53/118/1
f 53/118/1 56/187/1 54/106/1
f 14/13/2 16/20/2 64/119/2
f 63/61/49 109/61/49 98/120/49
f 59/123/3 15/24/3 21/26/3
f 21/26/3 103/189/3 105/121/3
f 105/121/3 106/190/3 107/191/3
f 107/191/3 104/192/3 58/122/3
f 58/122/3 60/193/3 61/194/3
f 61/194/3 62/195/3 59/123/3
f 59/123/3 21/26/3 105/121/3
f 105/121/3 107/191/3 58/122/3
f 58/122/3 61/194/3 59/123/3
f 23/29/3 108/196/3 110/197/3
f 110/197/3 111/198/3 112/124/3
f 112/124/3 109/199/3 63/200/3
f 63/200/3 65/201/3 66/125/3
f 66/125/3 67/202/3 64/203/3
f 64/203/3 16/27/3 23/29/3
f 23/29/3 110/197/3 112/124/3
f 112/124/3 63/200/3 66/125/3
f 66/125/3 64/203/3 23/29/3
f 25/32/3 113/204/3 115/205/3
f 115/205/3 116/206/3 117/126/3
f 117/126/3 114/207/3 68/208/3
f 68/208/3 70/209/3 71/127/3
f 71/127/3 72/210/3 69/211/3
f 69/211/3 17/30/3 25/32/3
f 25/32/3 115/205/3 117/126/3
f 117/126/3 68/208/3 71/127/3
f 71/127/3 69/211/3 25/32/3
f 74/130/3 18/33/3 27/35/3
f 27/35/3 118/212/3 120/128/3
f 120/128/3 121/213/3 122/214/3
f 122/214/53 119/215/53 73/129/53
f 73/129/3 75/216/3 76/217/3
f 76/217/3 77/218/3 74/130/3
f 74/130/3 27/35/3 120/128/3
f 120/128/3 122/214/3 73/129/3
f 73/129/3 76/217/3 74/130/3
f 28/3/1 19/2/1 78/219/1
f 78/219/1 80/220/1 81/131/1
f 81/131/1 82/221/1 79/106/1
f 79/106/54 123/156/54 125/132/54
f 125/132/1 126/222/1 127/223/1
f 127/223/1 124/224/1 28/3/1
f 28/3/1 78/219/1 81/131/1
f 81/131/1 79/106/1 125/132/1
f 125/132/1 127/223/1 28/3/1
f 28/133/50 124/225/50 83/134/50
f 103/138/50 21/226/50 32/136/50
f 31/137/50 129/227/50 103/138/50
f 22/139/50 99/228/50 108/140/50
f 24/142/50 89/229/50 113/143/50
f 26/145/50 94/230/50 118/146/50
f 28/231/50 29/232/50 30/148/50
f 30/148/50 32/233/50 21/234/50
f 30/148/50 21/234/50 22/235/50
f 27/236/50 28/231/50 30/148/50
f 26/237/50 27/236/50 30/148/50
f 30/148/50 22/235/50 23/238/50
f 30/148/50 23/238/50 24/149/50
f 25/150/50 26/237/50 30/148/50
o Divider
v -1.742507 0.017991 -0.546125
v -1.673806 7.482984 -0.546125
v -1.742507 0.017991 -0.916583
v -1.673806 7.482984 -0.916583
v 1.742507 0.017991 -0.546125
v 1.673806 7.482984 -0.546125
v 1.742507 0.017991 -0.916583
v 1.673806 7.482984 -0.916583
v -1.742507 7.168782 -0.546125
v -1.742507 7.168782 -0.916583
v 1.742507 7.168782 -0.916583
v 1.742507 7.168782 -0.546125
vn -0.9769 0.2136 -0.0000
vn -0.0000 -0.0000 -1.0000
vn 0.9769 0.2136 -0.0000
vn -0.0000 -0.0000 1.0000
vn -0.0000 -1.0000 -0.0000
vn -0.0000 1.0000 -0.0000
vn 1.0000 -0.0000 -0.0000
vn -1.0000 -0.0000 -0.0000
vt 0.915375 0.021719
vt 0.912343 0.093759
vt 0.912343 0.021719
vt 0.915375 0.093759
vt 0.912343 0.165799
vt 0.915375 0.165799
vt 0.912343 0.237839
vt 0.915375 0.237839
vt 0.912343 0.309879
vt 0.843335 0.165799
vt 0.771295 0.237839
vt 0.771295 0.165799
vt 0.987415 0.165799
vt 0.843335 0.309879
vt 0.843335 0.237839
vt 0.843335 0.093759
vt 0.843335 0.021719
vt 0.915375 0.309879
vt 0.987415 0.237839
s 0
usemtl Material.001
f 134/239/55 142/240/55 141/241/55
f 136/242/56 143/243/56 142/240/56
f 140/244/57 144/245/57 143/243/57
f 138/246/58 141/247/58 144/245/58
f 139/248/59 133/249/59 135/250/59
f 136/251/60 138/246/60 140/244/60
f 144/245/58 133/252/58 137/253/58
f 143/243/61 137/253/61 139/248/61
f 142/240/56 139/248/56 135/254/56
f 141/241/62 135/254/62 133/255/62
f 134/239/55 136/242/55 142/240/55
f 136/242/56 140/244/56 143/243/56
f 140/244/57 138/246/57 144/245/57
f 138/246/58 134/256/58 141/247/58
f 139/248/59 137/253/59 133/249/59
f 136/251/60 134/257/60 138/246/60
f 144/245/58 141/247/58 133/252/58
f 143/243/61 144/245/61 137/253/61
f 142/240/56 143/243/56 139/248/56
f 141/241/62 142/240/62 135/254/62
