# Blender 5.0.0
# www.blender.org
mtllib shelf.mtl
o Shelf
v -1.664431 -0.006257 4.332504
v -1.576743 7.433315 4.332504
v -1.664431 -0.006257 -4.332504
v -1.576743 7.433315 -4.332504
v 1.664431 -0.006257 4.332504
v 1.576743 7.433315 4.332504
v 1.664431 -0.006257 -4.332504
v 1.576743 7.433315 -4.332504
v -1.664431 4.075798 4.332504
v -1.664431 4.075798 -4.332504
v 1.664431 4.075798 -4.332504
v 1.664431 4.075798 4.332504
v -1.664431 5.754556 4.332504
v -1.664431 5.754556 -4.332504
v 1.664431 5.754556 -4.332504
v 1.664431 5.754556 4.332504
v -1.664431 2.384420 -4.332504
v 1.664431 2.384420 -4.332504
v 1.664431 2.384420 4.332504
v -1.664431 2.384420 4.332504
v -1.576743 0.982439 -4.332504
v 1.576743 0.982439 -4.332504
v 1.576743 0.982439 4.332504
v -1.576743 0.982439 4.332504
v -1.576743 2.618938 4.332504
v -1.576743 2.618938 -4.332504
v 1.576743 2.618938 -4.332504
v 1.576743 2.618938 4.332504
v -1.576743 4.300696 -4.332504
v 1.576743 4.300696 -4.332504
v 1.576743 4.300696 4.332504
v -1.576743 4.300696 4.332504
v -1.576743 5.964222 4.332504
v -1.576743 5.964222 -4.332504
v 1.576743 5.964222 -4.332504
v 1.576743 5.964222 4.332504
v -1.664431 7.170801 4.332504
v -1.664431 7.170801 -4.332504
v 1.664431 7.170801 -4.332504
v 1.664431 7.170801 4.332504
v 0.000000 -0.006257 -4.332504
v 0.000000 7.433315 -4.332504
v 0.000000 -0.006257 4.332504
v 0.000000 7.433315 4.332504
v 0.000000 4.075798 4.332504
v 0.000000 4.075798 -4.332504
v 0.000000 5.754556 4.332504
v 0.000000 5.754556 -4.332504
v 0.000000 2.384420 -4.332504
v 0.000000 2.384420 4.332504
v 0.000000 0.982439 4.332504
v 0.000000 0.982439 -4.332504
v 0.000000 2.618938 -4.332504
v 0.000000 2.618938 4.332504
v 0.000000 4.300696 -4.332504
v 0.000000 4.300696 4.332504
v 0.000000 5.964222 4.332504
v 0.000000 5.964222 -4.332504
v 0.000000 7.170801 4.332504
v 0.000000 7.170801 -4.332504
v 0.209602 7.433315 -4.332504
v 0.209602 -0.006257 4.332504
v 0.209602 4.075798 -4.332504
v 0.209602 5.754556 -4.332504
v 0.209602 2.384420 -4.332504
v 0.209602 0.982439 -4.332504
v 0.209602 2.618938 -4.332504
v 0.209602 4.300696 -4.332504
v 0.209602 5.964222 -4.332504
v 0.209602 7.170801 -4.332504
v 0.209602 -0.006257 -4.332504
v 0.209602 7.433315 4.332504
v 0.209602 4.075798 4.332504
v 0.209602 5.754556 4.332504
v 0.209602 2.384420 4.332504
v 0.209602 0.982439 4.332504
v 0.209602 2.618938 4.332504
v 0.209602 4.300696 4.332504
v 0.209602 5.964222 4.332504
v 0.209602 7.170801 4.332504
v -0.198791 -0.006257 -4.332504
v -0.198791 7.433315 4.332504
v -0.198791 4.075798 4.332504
v -0.198791 5.754556 4.332504
v -0.198791 2.384420 4.332504
v -0.198791 0.982439 4.332504
v -0.198791 2.618938 4.332504
v -0.198791 4.300696 4.332504
v -0.198791 5.964222 4.332504
v -0.198791 7.170801 4.332504
v -0.198791 7.433315 -4.332504
v -0.198791 -0.006257 4.332504
v -0.198791 4.075798 -4.332504
v -0.198791 5.754556 -4.332504
v -0.198791 2.384420 -4.332504
v -0.198791 0.982439 -4.332504
v -0.198791 2.618938 -4.332504
v -0.198791 4.300696 -4.332504
v -0.198791 5.964222 -4.332504
v -0.198791 7.170801 -4.332504
vn -0.9485 0.3168 -0.0000
vn -0.0000 -0.0000 -1.0000
vn 0.9485 0.3168 -0.0000
vn -0.0000 -0.0000 1.0000
vn -0.0000 -1.0000 -0.0000
vn -0.0000 1.0000 -0.0000
vn 0.9961 0.0883 -0.0000
vn -0.9961 0.0883 -0.0000
vn -0.9367 0.3502 -0.0000
vn 0.9367 0.3502 -0.0000
vn -0.9317 0.3633 -0.0000
vn 0.9317 0.3633 -0.0000
vn 0.9226 0.3858 -0.0000
vn -0.9226 0.3858 -0.0000
vn 1.0000 -0.0000 -0.0000
vn -1.0000 -0.0000 -0.0000
vt 0.703732 0.975492
vt 0.036635 0.955282
vt 0.703732 0.955282
vt 0.472463 0.302710
vt 0.489305 0.215000
vt 0.472463 0.209374
vt 0.036635 0.975492
vt 0.472463 0.328911
vt 0.489305 0.417315
vt 0.472463 0.422941
vt 0.964351 0.417381
vt 0.871014 0.973295
vt 0.871014 0.417381
vt 0.756409 0.417381
vt 0.844813 0.973295
vt 0.844813 0.417381
vt 0.056874 0.328911
vt 0.075441 0.417315
vt 0.056874 0.422941
vt 0.036635 0.478855
vt 0.703732 0.456576
vt 0.036635 0.456576
vt 0.056874 0.302710
vt 0.075441 0.215000
vt 0.056874 0.209374
vt 0.703732 0.478855
vt 0.703732 0.604845
vt 0.036635 0.586791
vt 0.703732 0.586791
vt 0.165387 0.302710
vt 0.180432 0.215000
vt 0.165387 0.209374
vt 0.036635 0.604845
vt 0.165387 0.328911
vt 0.180433 0.417315
vt 0.165387 0.422941
vt 0.703732 0.734320
vt 0.036635 0.717005
vt 0.703732 0.717005
vt 0.273899 0.302710
vt 0.288328 0.215000
vt 0.273899 0.209374
vt 0.036635 0.734320
vt 0.273899 0.328911
vt 0.288328 0.417315
vt 0.273899 0.422941
vt 0.381602 0.328911
vt 0.395053 0.417315
vt 0.381602 0.422941
vt 0.036635 0.862390
vt 0.703732 0.846249
vt 0.036635 0.846249
vt 0.381602 0.302710
vt 0.395053 0.215000
vt 0.381602 0.209374
vt 0.703732 0.862390
vt 0.395053 0.316157
vt 0.395053 0.328911
vt 0.395053 0.316157
vt 0.395053 0.302710
vt 0.381602 0.316157
vt 0.381602 0.328911
vt 0.381602 0.316157
vt 0.381602 0.302710
vt 0.288328 0.302710
vt 0.273899 0.316157
vt 0.273899 0.302710
vt 0.288328 0.328911
vt 0.273899 0.316157
vt 0.273899 0.328911
vt 0.180433 0.302710
vt 0.165387 0.316157
vt 0.180432 0.328911
vt 0.075441 0.328911
vt 0.056874 0.316157
vt 0.056874 0.328911
vt 0.075441 0.302710
vt 0.056874 0.316157
vt 0.056874 0.302710
vt 0.075441 0.316157
vt 0.288328 0.316157
vt 0.180432 0.316157
vt 0.180433 0.316157
vt 0.857567 0.417381
vt 0.489305 0.302710
vt 0.472463 0.316157
vt 0.489305 0.328911
vt 0.489305 0.215000
vt 0.958725 0.973295
vt 0.958725 0.417381
vt 0.056874 0.209374
vt 0.180433 0.215000
vt 0.273899 0.209374
vt 0.395053 0.215000
vt 0.381602 0.209374
vt 0.036635 0.910376
vt 0.703732 0.910376
vt 0.395053 0.302710
vt 0.180432 0.302710
vt 0.857567 0.973295
vt 0.489305 0.316157
vt 0.489305 0.417315
vt 0.750783 0.973295
vt 0.750783 0.417381
vt 0.964351 0.973295
vt 0.036635 0.782305
vt 0.703732 0.782305
vt 0.056874 0.422941
vt 0.180432 0.417315
vt 0.273899 0.422941
vt 0.395053 0.417315
vt 0.381602 0.422941
vt 0.395053 0.328911
vt 0.180433 0.328911
vt 0.489305 0.316157
vt 0.703732 0.652831
vt 0.036635 0.652831
vt 0.703732 0.526841
vt 0.036635 0.526841
vt 0.489305 0.302710
vt 0.489305 0.328911
vt 0.756409 0.973295
s 0
usemtl Material.001
f 2/1/1 38/2/1 37/3/1
f 70/4/2 8/5/2 39/6/2
f 8/7/3 40/3/3 39/2/3
f 90/8/4 2/9/4 37/10/4
f 7/11/5 62/12/5 71/13/5
f 4/14/6 82/15/6 91/16/6
f 92/17/4 24/18/4 1/19/4
f 22/20/7 5/21/7 7/22/7
f 71/23/2 22/24/2 7/25/2
f 24/26/8 3/22/8 1/21/8
f 25/27/9 17/28/9 20/29/9
f 65/30/2 27/31/2 18/32/2
f 27/33/10 19/29/10 18/28/10
f 85/34/4 25/35/4 20/36/4
f 32/37/11 10/38/11 9/39/11
f 63/40/2 30/41/2 11/42/2
f 30/43/12 12/39/12 11/38/12
f 83/44/4 32/45/4 9/46/4
f 84/47/4 33/48/4 13/49/4
f 35/50/13 16/51/13 15/52/13
f 64/53/2 35/54/2 15/55/2
f 33/56/14 14/52/14 13/51/14
f 100/8/2 58/57/2 99/58/2
f 80/4/4 57/59/4 79/60/4
f 99/58/2 48/61/2 94/62/2
f 79/60/4 47/63/4 74/64/4
f 78/65/4 45/66/4 73/67/4
f 98/68/2 46/69/2 93/70/2
f 77/71/4 50/72/4 75/30/4
f 97/73/2 49/72/2 95/34/2
f 96/74/2 41/75/2 81/76/2
f 76/77/4 43/78/4 62/79/4
f 75/30/4 51/80/4 76/77/4
f 95/34/2 52/80/2 96/74/2
f 94/62/2 55/81/2 98/68/2
f 74/64/4 56/81/4 78/65/4
f 93/70/2 53/82/2 97/73/2
f 73/67/4 54/83/4 77/71/4
f 42/84/6 72/12/6 61/13/6
f 41/84/5 92/15/5 81/16/5
f 72/85/4 59/86/4 80/4/4
f 91/87/2 60/86/2 100/8/2
f 6/88/4 80/4/4 40/6/4
f 61/13/6 6/89/6 8/90/6
f 23/24/4 62/79/4 5/91/4
f 28/92/4 75/30/4 19/32/4
f 31/41/4 73/67/4 12/93/4
f 36/94/4 74/64/4 16/95/4
f 69/96/15 80/3/15 79/97/15
f 60/86/2 69/98/2 58/57/2
f 58/57/2 64/53/2 48/61/2
f 55/81/2 63/40/2 46/69/2
f 53/82/2 65/30/2 49/72/2
f 52/80/2 71/23/2 41/75/2
f 49/72/2 66/77/2 52/80/2
f 48/61/2 68/65/2 55/81/2
f 46/69/2 67/99/2 53/82/2
f 71/13/5 43/100/5 41/84/5
f 42/101/2 70/4/2 60/86/2
f 4/102/2 100/8/2 38/10/2
f 81/16/5 1/103/5 3/104/5
f 73/12/5 11/11/5 12/105/5
f 68/106/15 74/51/15 78/107/15
f 78/107/6 30/43/6 68/106/6
f 21/18/2 81/76/2 3/108/2
f 26/109/2 95/34/2 17/36/2
f 29/45/2 93/70/2 10/110/2
f 34/111/2 94/62/2 14/112/2
f 74/12/5 15/11/5 16/105/5
f 59/86/4 89/113/4 57/59/4
f 57/59/4 84/47/4 47/63/4
f 56/81/4 83/44/4 45/66/4
f 54/83/4 85/34/4 50/72/4
f 51/80/4 92/17/4 43/78/4
f 50/72/4 86/74/4 51/80/4
f 47/63/4 88/68/4 56/81/4
f 45/66/4 87/114/4 54/83/4
f 91/16/6 44/100/6 42/84/6
f 44/115/4 90/8/4 59/86/4
f 40/105/5 70/13/5 39/11/5
f 79/97/6 35/50/6 69/96/6
f 77/116/6 27/33/6 67/117/6
f 77/116/15 63/38/15 73/39/15
f 18/11/5 75/12/5 65/13/5
f 22/20/6 76/118/6 23/26/6
f 66/119/15 75/29/15 76/118/15
f 96/119/6 24/26/6 86/118/6
f 95/16/5 20/103/5 17/104/5
f 86/118/16 95/28/16 96/119/16
f 25/27/6 97/117/6 26/33/6
f 9/103/5 93/16/5 83/15/5
f 87/116/16 93/38/16 97/117/16
f 32/37/6 98/106/6 29/43/6
f 13/103/5 94/16/5 84/15/5
f 88/107/16 94/52/16 98/106/16
f 99/96/6 33/56/6 89/97/6
f 37/103/5 100/16/5 90/15/5
f 89/97/16 100/2/16 99/96/16
f 2/1/1 4/7/1 38/2/1
f 70/4/2 61/120/2 8/5/2
f 8/7/3 6/1/3 40/3/3
f 90/8/4 82/121/4 2/9/4
f 7/11/5 5/105/5 62/12/5
f 4/14/6 2/122/6 82/15/6
f 92/17/4 86/74/4 24/18/4
f 22/20/7 23/26/7 5/21/7
f 71/23/2 66/77/2 22/24/2
f 24/26/8 21/20/8 3/22/8
f 25/27/9 26/33/9 17/28/9
f 65/30/2 67/99/2 27/31/2
f 27/33/10 28/27/10 19/29/10
f 85/34/4 87/114/4 25/35/4
f 32/37/11 29/43/11 10/38/11
f 63/40/2 68/65/2 30/41/2
f 30/43/12 31/37/12 12/39/12
f 83/44/4 88/68/4 32/45/4
f 84/47/4 89/113/4 33/48/4
f 35/50/13 36/56/13 16/51/13
f 64/53/2 69/98/2 35/54/2
f 33/56/14 34/50/14 14/52/14
f 100/8/2 60/86/2 58/57/2
f 80/4/4 59/86/4 57/59/4
f 99/58/2 58/57/2 48/61/2
f 79/60/4 57/59/4 47/63/4
f 78/65/4 56/81/4 45/66/4
f 98/68/2 55/81/2 46/69/2
f 77/71/4 54/83/4 50/72/4
f 97/73/2 53/82/2 49/72/2
f 96/74/2 52/80/2 41/75/2
f 76/77/4 51/80/4 43/78/4
f 75/30/4 50/72/4 51/80/4
f 95/34/2 49/72/2 52/80/2
f 94/62/2 48/61/2 55/81/2
f 74/64/4 47/63/4 56/81/4
f 93/70/2 46/69/2 53/82/2
f 73/67/4 45/66/4 54/83/4
f 42/84/6 44/100/6 72/12/6
f 41/84/5 43/100/5 92/15/5
f 72/85/4 44/115/4 59/86/4
f 91/87/2 42/101/2 60/86/2
f 6/88/4 72/85/4 80/4/4
f 61/13/6 72/12/6 6/89/6
f 23/24/4 76/77/4 62/79/4
f 28/92/4 77/71/4 75/30/4
f 31/41/4 78/65/4 73/67/4
f 36/94/4 79/60/4 74/64/4
f 69/96/15 70/2/15 80/3/15
f 60/86/2 70/4/2 69/98/2
f 58/57/2 69/98/2 64/53/2
f 55/81/2 68/65/2 63/40/2
f 53/82/2 67/99/2 65/30/2
f 52/80/2 66/77/2 71/23/2
f 49/72/2 65/30/2 66/77/2
f 48/61/2 64/53/2 68/65/2
f 46/69/2 63/40/2 67/99/2
f 71/13/5 62/12/5 43/100/5
f 42/101/2 61/120/2 70/4/2
f 4/102/2 91/87/2 100/8/2
f 81/16/5 92/15/5 1/103/5
f 73/12/5 63/13/5 11/11/5
f 68/106/15 64/52/15 74/51/15
f 78/107/6 31/37/6 30/43/6
f 21/18/2 96/74/2 81/76/2
f 26/109/2 97/73/2 95/34/2
f 29/45/2 98/68/2 93/70/2
f 34/111/2 99/58/2 94/62/2
f 74/12/5 64/13/5 15/11/5
f 59/86/4 90/8/4 89/113/4
f 57/59/4 89/113/4 84/47/4
f 56/81/4 88/68/4 83/44/4
f 54/83/4 87/114/4 85/34/4
f 51/80/4 86/74/4 92/17/4
f 50/72/4 85/34/4 86/74/4
f 47/63/4 84/47/4 88/68/4
f 45/66/4 83/44/4 87/114/4
f 91/16/6 82/15/6 44/100/6
f 44/115/4 82/121/4 90/8/4
f 40/105/5 80/12/5 70/13/5
f 79/97/6 36/56/6 35/50/6
f 77/116/6 28/27/6 27/33/6
f 77/116/15 67/117/15 63/38/15
f 18/11/5 19/105/5 75/12/5
f 22/20/6 66/119/6 76/118/6
f 66/119/15 65/28/15 75/29/15
f 96/119/6 21/20/6 24/26/6
f 95/16/5 85/15/5 20/103/5
f 86/118/16 85/29/16 95/28/16
f 25/27/6 87/116/6 97/117/6
f 9/103/5 10/104/5 93/16/5
f 87/116/16 83/39/16 93/38/16
f 32/37/6 88/107/6 98/106/6
f 13/103/5 14/104/5 94/16/5
f 88/107/16 84/51/16 94/52/16
f 99/96/6 34/50/6 33/56/6
f 37/103/5 38/104/5 100/16/5
f 89/97/16 90/3/16 100/2/16
o Divider
v -1.742507 0.017991 -4.125013
v -1.673806 7.482984 -4.125013
v -1.742507 0.017991 -4.495471
v -1.673806 7.482984 -4.495471
v 1.742507 0.017991 -4.125013
v 1.673806 7.482984 -4.125013
v 1.742507 0.017991 -4.495471
v 1.673806 7.482984 -4.495471
v -1.742507 7.168782 -4.125013
v -1.742507 7.168782 -4.495471
v 1.742507 7.168782 -4.495471
v 1.742507 7.168782 -4.125013
vn -0.9769 0.2136 -0.0000
vn -0.0000 -0.0000 -1.0000
vn 0.9769 0.2136 -0.0000
vn -0.0000 -0.0000 1.0000
vn -0.0000 -1.0000 -0.0000
vn -0.0000 1.0000 -0.0000
vn 1.0000 -0.0000 -0.0000
vn -1.0000 -0.0000 -0.0000
vt 0.625000 0.000000
vt 0.614478 0.250000
vt 0.614478 0.000000
vt 0.625000 0.250000
vt 0.614478 0.500000
vt 0.625000 0.500000
vt 0.614478 0.750000
vt 0.625000 0.750000
vt 0.614478 1.000000
vt 0.375000 0.500000
vt 0.125000 0.750000
vt 0.125000 0.500000
vt 0.875000 0.500000
vt 0.375000 1.000000
vt 0.375000 0.750000
vt 0.375000 0.250000
vt 0.375000 0.000000
vt 0.625000 1.000000
vt 0.875000 0.750000
s 0
usemtl Material
f 102/123/17 110/124/17 109/125/17
f 104/126/18 111/127/18 110/124/18
f 108/128/19 112/129/19 111/127/19
f 106/130/20 109/131/20 112/129/20
f 107/132/21 101/133/21 103/134/21
f 104/135/22 106/130/22 108/128/22
f 112/129/20 101/136/20 105/137/20
f 111/127/23 105/137/23 107/132/23
f 110/124/18 107/132/18 103/138/18
f 109/125/24 103/138/24 101/139/24
f 102/123/17 104/126/17 110/124/17
f 104/126/18 108/128/18 111/127/18
f 108/128/19 106/130/19 112/129/19
f 106/130/20 102/140/20 109/131/20
f 107/132/21 105/137/21 101/133/21
f 104/135/22 102/141/22 106/130/22
f 112/129/20 109/131/20 101/136/20
f 111/127/23 112/129/23 105/137/23
f 110/124/18 111/127/18 107/132/18
f 109/125/24 110/124/24 103/138/24
