# Blender 5.0.0
# www.blender.org
mtllib box.mtl
o jimbo
v -0.347399 -0.036908 0.606339
v -0.347399 1.963092 0.606339
v -0.347399 -0.036908 -0.606339
v -0.347399 1.963092 -0.606339
v 0.347399 -0.036908 0.606339
v 0.347399 1.963092 0.606339
v 0.347399 -0.036908 -0.606339
v 0.347399 1.963092 -0.606339
vn -1.0000 -0.0000 -0.0000
vn -0.0000 -0.0000 -1.0000
vn 1.0000 -0.0000 -0.0000
vn -0.0000 -0.0000 1.0000
vn -0.0000 -1.0000 -0.0000
vn -0.0000 1.0000 -0.0000
vt 0.250000 0.561147
vt 0.000000 0.878444
vt 0.000000 0.561147
vt 0.997915 0.536169
vt 0.908335 0.765625
vt 0.908335 0.536169
vt 0.250000 0.236790
vt 0.000000 0.554088
vt 0.000000 0.236790
vt 0.997915 0.765625
vt 0.908335 0.995081
vt 0.507812 1.000977
vt 0.257812 0.885742
vt 0.507812 0.885742
vt 0.508789 1.000977
vt 0.258789 0.885742
vt 0.508789 0.885742
vt 0.250000 0.878444
vt 0.250000 0.554088
vt 0.997915 0.995081
vt 0.257812 1.000977
vt 0.258789 1.000977
s 0
usemtl Material.001
f 2/1/1 3/2/1 1/3/1
f 4/4/2 7/5/2 3/6/2
f 8/7/3 5/8/3 7/9/3
f 6/10/4 1/11/4 5/5/4
f 7/12/5 1/13/5 3/14/5
f 4/15/6 6/16/6 8/17/6
f 2/1/1 4/18/1 3/2/1
f 4/4/2 8/10/2 7/5/2
f 8/7/3 6/19/3 5/8/3
f 6/10/4 2/20/4 1/11/4
f 7/12/5 5/21/5 1/13/5
f 4/15/6 2/22/6 6/16/6
