# Blender 5.0.0
# www.blender.org
mtllib queenanne.mtl
o queenAnne
v -0.475725 -0.007199 2.108983
v -0.463513 1.546716 2.135955
v -0.492802 -0.004948 1.225569
v -0.465852 1.547876 1.219562
v 0.452108 -0.012868 2.130264
v 0.446169 1.555305 2.118443
v 0.480662 -0.000183 1.225001
v 0.446741 1.576305 1.212784
v -0.496195 -0.029547 1.293165
v -0.496195 1.571553 1.293165
v 0.496195 -0.029547 1.293165
v 0.496195 1.571553 1.293165
v -0.496195 -0.029547 2.038736
v 0.496195 1.571553 2.038736
v -0.496195 1.571553 2.038736
v 0.496195 -0.029547 2.038736
v 0.376950 -0.029547 1.181416
v 0.376950 1.571553 1.181416
v 0.376950 -0.029547 2.152225
v 0.376950 1.571553 2.152225
v 0.376950 1.571553 1.293165
v 0.376950 -0.029547 1.293165
v 0.376950 1.571553 2.038736
v 0.376950 -0.029547 2.038736
v -0.372111 -0.029547 1.181416
v -0.372111 1.571553 2.152225
v -0.372111 -0.029547 1.293165
v -0.372111 -0.029547 2.038736
v -0.372111 1.571553 1.181416
v -0.372111 -0.029547 2.152225
v -0.372111 1.571553 1.293165
v -0.372111 1.571553 2.038736
v -0.464081 1.458914 2.117250
v -0.470829 1.458914 1.206574
v 0.461279 1.458914 1.210387
v 0.466932 1.458914 2.117069
v 0.496195 1.458914 1.293165
v -0.496195 1.458914 1.293165
v -0.496195 1.458914 2.038736
v 0.496195 1.458914 2.038736
v 0.376950 1.458914 2.152225
v 0.376950 1.458914 1.181416
v -0.372111 1.458914 1.181416
v -0.372111 1.458914 2.152225
v -0.470829 0.104155 1.206574
v 0.461279 0.104155 1.210387
v 0.466932 0.104155 2.117069
v 0.496195 0.104155 1.293165
v -0.496195 0.104155 1.293165
v -0.496195 0.104155 2.038736
v 0.496195 0.104155 2.038736
v 0.376950 0.104155 2.152225
v 0.376950 0.104155 1.181416
v -0.372111 0.104155 1.181416
v -0.372111 0.104155 2.152225
v -0.464081 0.104155 2.117250
vn -0.6932 -0.3657 0.6211
vn -0.6245 0.2972 0.7223
vn -0.7709 -0.3412 -0.5378
vn -0.6372 0.4309 -0.6390
vn 0.5707 -0.3934 0.7208
vn 0.5394 0.4696 0.6989
vn 0.7274 -0.3349 -0.5989
vn 0.5246 0.5224 -0.6722
vn -0.8335 -0.5404 -0.1150
vn -0.8379 0.4977 -0.2242
vn 0.8329 -0.5207 -0.1877
vn 0.8554 0.4808 -0.1927
vn -0.8401 -0.5099 0.1851
vn 0.8399 0.4949 0.2228
vn -0.8439 0.4968 0.2027
vn 0.8447 -0.4947 0.2041
vn 0.2050 -0.4932 -0.8454
vn 0.1742 0.4691 -0.8658
vn 0.1657 -0.4974 0.8516
vn 0.2326 0.4792 0.8463
vn -0.0076 0.9999 0.0082
vn 0.0438 -0.9982 -0.0403
vn 0.0262 0.9993 0.0280
vn 0.0238 -0.9994 0.0259
vn -0.1643 -0.4990 -0.8509
vn -0.1357 0.5124 0.8480
vn -0.0339 -0.9990 -0.0300
vn -0.0330 -0.9990 0.0306
vn -0.2098 0.4871 -0.8478
vn -0.1999 -0.4878 0.8498
vn -0.0358 0.9988 -0.0344
vn -0.0320 0.9989 0.0335
vn -0.7292 -0.0586 0.6818
vn -0.6790 0.0693 -0.7308
vn 0.6744 0.0344 -0.7376
vn 0.7046 0.0452 0.7082
vn 0.9801 -0.0000 -0.1986
vn -0.9873 0.0091 -0.1584
vn -0.9812 -0.0000 0.1932
vn 0.9840 -0.0000 0.1780
vn 0.1964 0.0070 0.9805
vn 0.1760 0.0073 -0.9844
vn -0.1473 0.0125 -0.9890
vn -0.1497 -0.0169 0.9886
vn -0.6600 0.0105 -0.7512
vn 0.6558 0.0138 -0.7548
vn 0.7226 0.0022 0.6912
vn 0.9844 0.0140 -0.1755
vn -0.9935 0.0181 -0.1125
vn -0.9837 0.0083 0.1796
vn 0.1735 0.0071 0.9848
vn 0.1645 -0.0000 -0.9864
vn -0.1244 -0.0000 -0.9922
vn -0.1804 -0.0000 0.9836
vn -0.6815 0.0112 0.7318
vt 0.490225 0.841920
vt 0.507812 0.878444
vt 0.490225 0.878444
vt 0.873449 0.738054
vt 0.879751 0.765625
vt 0.873449 0.765625
vt 0.507812 0.516995
vt 0.490225 0.554088
vt 0.490225 0.516995
vt 0.873449 0.966391
vt 0.879751 0.995081
vt 0.873449 0.995081
vt 0.287038 0.987130
vt 0.257812 1.000977
vt 0.257812 0.987130
vt 0.287038 0.986568
vt 0.257812 0.986568
vt 0.507812 1.000977
vt 0.479035 0.986568
vt 0.507812 0.986568
vt 0.479035 0.987130
vt 0.507812 0.987130
vt 0.490225 0.236790
vt 0.507812 0.273314
vt 0.490225 0.273314
vt 0.507812 0.598239
vt 0.490225 0.598239
vt 0.490225 0.561147
vt 0.479035 1.000977
vt 0.287038 0.900151
vt 0.479035 0.900151
vt 0.479035 0.899589
vt 0.287038 0.885742
vt 0.479035 0.885742
vt 0.507812 0.900151
vt 0.507812 0.885742
vt 0.287038 0.899589
vt 0.257812 0.885742
vt 0.257812 0.900151
vt 0.873449 0.793196
vt 0.879751 0.564859
vt 0.873449 0.564859
vt 0.879751 0.536169
vt 0.873449 0.536169
vt 0.507812 0.899589
vt 0.257812 0.899589
vt 0.879751 0.793196
vt 0.797652 0.966391
vt 0.797652 0.793196
vt 0.797652 0.564859
vt 0.797652 0.536169
vt 0.797652 0.738054
vt 0.797652 0.765625
vt 0.278689 0.516995
vt 0.278689 0.273314
vt 0.278689 0.598239
vt 0.278689 0.561147
vt 0.278689 0.841920
vt 0.278689 0.236790
vt 0.797652 0.995081
vt 0.278689 0.554088
vt 0.278689 0.878444
vt 0.257812 0.878444
vt 0.257812 0.841920
vt 0.790171 0.738054
vt 0.790171 0.765625
vt 0.257812 0.516995
vt 0.257812 0.554088
vt 0.790171 0.966391
vt 0.790171 0.995081
vt 0.257812 0.236790
vt 0.257812 0.273314
vt 0.257812 0.598239
vt 0.257812 0.561147
vt 0.790171 0.793196
vt 0.790171 0.564859
vt 0.790171 0.536169
vt 0.507812 0.841920
vt 0.879751 0.738054
vt 0.507812 0.554088
vt 0.879751 0.966391
vt 0.287038 1.000977
vt 0.507812 0.236790
vt 0.507812 0.561147
s 1
usemtl Material.001
f 38/1/38 4/2/4 34/3/34
f 42/4/42 8/5/8 35/6/35
f 14/7/14 36/8/36 40/9/40
f 44/10/44 2/11/2 33/12/33
f 24/13/24 5/14/5 19/15/19
f 32/16/32 2/14/2 26/17/26
f 4/18/4 31/19/31 29/20/29
f 7/18/7 22/21/22 17/22/17
f 35/23/35 12/24/12 37/25/37
f 15/26/15 38/1/38 39/27/39
f 33/28/33 15/26/15 39/27/39
f 10/29/10 32/16/32 31/19/31
f 11/29/11 24/13/24 22/21/22
f 12/24/12 40/9/40 37/25/37
f 22/21/22 28/30/28 27/31/27
f 21/32/21 14/33/14 12/34/12
f 17/22/17 27/31/27 25/35/25
f 8/36/8 21/32/21 12/34/12
f 23/37/23 6/38/6 14/33/14
f 24/13/24 30/39/30 28/30/28
f 6/5/6 41/40/41 36/6/36
f 29/41/29 42/4/42 43/42/43
f 4/43/4 43/42/43 34/44/34
f 28/30/28 1/38/1 13/33/13
f 3/36/3 27/31/27 9/34/9
f 27/31/27 13/33/13 9/34/9
f 31/19/31 23/37/23 21/32/21
f 29/20/29 21/32/21 18/45/18
f 32/16/32 20/46/20 23/37/23
f 20/47/20 44/10/44 41/40/41
f 41/40/41 55/48/54 52/49/51
f 34/44/34 54/50/53 45/51/45
f 43/42/43 53/52/52 54/50/53
f 36/6/36 52/49/51 47/53/47
f 37/25/37 51/54/40 48/55/48
f 33/28/33 50/56/50 56/57/55
f 39/27/39 49/58/49 50/56/50
f 35/23/35 48/55/48 46/59/46
f 44/10/44 56/60/55 55/48/54
f 40/9/40 47/61/47 51/54/40
f 42/4/42 46/53/46 53/52/52
f 38/1/38 45/62/45 49/58/49
f 49/58/49 3/63/3 9/64/9
f 17/65/17 46/53/46 7/66/7
f 16/67/16 47/61/47 5/68/5
f 30/69/30 56/60/55 1/70/1
f 7/71/7 48/55/48 11/72/11
f 50/56/50 9/64/9 13/73/13
f 1/74/1 50/56/50 13/73/13
f 48/55/48 16/67/16 11/72/11
f 5/66/5 52/49/51 19/75/19
f 54/50/53 17/65/17 25/76/25
f 45/51/45 25/76/25 3/77/3
f 52/49/51 30/69/30 19/75/19
f 38/1/38 10/78/10 4/2/4
f 42/4/42 18/79/18 8/5/8
f 14/7/14 6/80/6 36/8/36
f 44/10/44 26/81/26 2/11/2
f 24/13/24 16/82/16 5/14/5
f 32/16/32 15/82/15 2/14/2
f 4/18/4 10/29/10 31/19/31
f 7/18/7 11/29/11 22/21/22
f 35/23/35 8/83/8 12/24/12
f 15/26/15 10/78/10 38/1/38
f 33/28/33 2/84/2 15/26/15
f 10/29/10 15/82/15 32/16/32
f 11/29/11 16/82/16 24/13/24
f 12/24/12 14/7/14 40/9/40
f 22/21/22 24/13/24 28/30/28
f 21/32/21 23/37/23 14/33/14
f 17/22/17 22/21/22 27/31/27
f 8/36/8 18/45/18 21/32/21
f 23/37/23 20/46/20 6/38/6
f 24/13/24 19/15/19 30/39/30
f 6/5/6 20/47/20 41/40/41
f 29/41/29 18/79/18 42/4/42
f 4/43/4 29/41/29 43/42/43
f 28/30/28 30/39/30 1/38/1
f 3/36/3 25/35/25 27/31/27
f 27/31/27 28/30/28 13/33/13
f 31/19/31 32/16/32 23/37/23
f 29/20/29 31/19/31 21/32/21
f 32/16/32 26/17/26 20/46/20
f 20/47/20 26/81/26 44/10/44
f 41/40/41 44/10/44 55/48/54
f 34/44/34 43/42/43 54/50/53
f 43/42/43 42/4/42 53/52/52
f 36/6/36 41/40/41 52/49/51
f 37/25/37 40/9/40 51/54/40
f 33/28/33 39/27/39 50/56/50
f 39/27/39 38/1/38 49/58/49
f 35/23/35 37/25/37 48/55/48
f 44/10/44 33/12/33 56/60/55
f 40/9/40 36/8/36 47/61/47
f 42/4/42 35/6/35 46/53/46
f 38/1/38 34/3/34 45/62/45
f 49/58/49 45/62/45 3/63/3
f 17/65/17 53/52/52 46/53/46
f 16/67/16 51/54/40 47/61/47
f 30/69/30 55/48/54 56/60/55
f 7/71/7 46/59/46 48/55/48
f 50/56/50 49/58/49 9/64/9
f 1/74/1 56/57/55 50/56/50
f 48/55/48 51/54/40 16/67/16
f 5/66/5 47/53/47 52/49/51
f 54/50/53 53/52/52 17/65/17
f 45/51/45 54/50/53 25/76/25
f 52/49/51 55/48/54 30/69/30
