# Blender 5.0.0
# www.blender.org
mtllib stuf.mtl
o stuf
v -0.198446 -0.000277 -1.453786
v -0.198446 0.625902 -1.453786
v -0.198446 -0.000277 -2.146508
v -0.198446 0.625902 -2.146508
v 0.198446 -0.000277 -1.453786
v 0.198446 0.625902 -1.453786
v 0.198446 -0.000277 -2.146508
v 0.198446 0.625902 -2.146508
v -0.205869 -0.011988 -2.102432
v -0.205869 0.637613 -2.102432
v 0.205869 -0.011988 -2.102432
v 0.205869 0.637613 -2.102432
v -0.205869 -0.011988 -1.492884
v 0.205869 0.637613 -1.492884
v -0.205869 0.637613 -1.492884
v 0.205869 -0.011988 -1.492884
v -0.149783 -0.011988 -2.159464
v -0.149783 0.637613 -2.159464
v -0.149783 -0.011988 -1.440831
v -0.149783 0.637613 -1.440831
v -0.149783 0.637613 -2.102432
v -0.149783 -0.011988 -2.102432
v -0.149783 0.637613 -1.492884
v -0.149783 -0.011988 -1.492884
v 0.159055 0.637613 -2.159464
v 0.159055 -0.011988 -1.440831
v 0.159055 0.637613 -2.102432
v 0.159055 0.637613 -1.492884
v 0.159055 -0.011988 -2.159464
v 0.159055 0.637613 -1.440831
v 0.159055 -0.011988 -2.102432
v 0.159055 -0.011988 -1.492884
v -0.205869 0.580211 -1.440831
v -0.205869 0.580211 -2.159464
v 0.205869 0.580211 -2.159464
v 0.205869 0.580211 -1.440831
v 0.205869 0.580211 -2.102432
v -0.205869 0.580211 -2.102432
v -0.205869 0.580211 -1.492884
v 0.205869 0.580211 -1.492884
v -0.149783 0.580211 -1.440831
v -0.149783 0.580211 -2.159464
v 0.159055 0.580211 -1.440831
v 0.159055 0.580211 -2.159464
v -0.205869 0.046357 -2.159464
v 0.205869 0.046357 -2.159464
v 0.205869 0.046357 -1.440831
v 0.205869 0.046357 -2.102432
v -0.205869 0.046357 -2.102432
v -0.205869 0.046357 -1.492884
v 0.205869 0.046357 -1.492884
v -0.149783 0.046357 -1.440831
v -0.149783 0.046357 -2.159464
v 0.159055 0.046357 -1.440831
v 0.159055 0.046357 -2.159464
v -0.205869 0.046357 -1.440831
vn -0.7043 -0.4998 0.5041
vn -0.7034 0.5023 0.5029
vn -0.7118 -0.5070 -0.4861
vn -0.7108 0.5095 -0.4850
vn 0.7183 -0.4903 0.4936
vn 0.7173 0.4928 0.4926
vn 0.7260 -0.4967 -0.4757
vn 0.7249 0.4992 -0.4747
vn -0.8380 -0.5312 -0.1247
vn -0.8380 0.5312 -0.1247
vn 0.8380 -0.5312 -0.1247
vn 0.8380 0.5312 -0.1247
vn -0.8366 -0.5303 0.1377
vn 0.8366 0.5303 0.1377
vn -0.8366 0.5303 0.1377
vn 0.8366 -0.5303 0.1377
vn -0.1662 -0.7315 -0.6612
vn -0.1662 0.7315 -0.6612
vn -0.1662 -0.7315 0.6612
vn -0.1662 0.7315 0.6612
vn -0.0416 0.9989 -0.0201
vn -0.0416 -0.9989 -0.0201
vn -0.0433 0.9989 0.0204
vn -0.0433 -0.9989 0.0204
vn 0.2008 0.7267 -0.6569
vn 0.2008 -0.7267 0.6569
vn 0.0469 0.9986 -0.0239
vn 0.0494 0.9985 0.0244
vn 0.2008 -0.7267 -0.6569
vn 0.2008 0.7267 0.6569
vn 0.0469 -0.9986 -0.0239
vn 0.0494 -0.9985 0.0244
vn -0.8608 0.1259 0.4932
vn -0.8608 0.1259 -0.4932
vn 0.8608 0.1259 -0.4932
vn 0.8608 0.1259 0.4932
vn 0.9996 0.0218 -0.0190
vn -0.9996 0.0218 -0.0190
vn -0.9995 0.0233 0.0197
vn 0.9995 0.0233 0.0197
vn -0.0435 0.0241 0.9988
vn -0.0435 0.0241 -0.9988
vn 0.0486 0.0284 0.9984
vn 0.0486 0.0284 -0.9984
vn -0.8610 -0.1237 -0.4933
vn 0.8610 -0.1237 -0.4933
vn 0.8610 -0.1237 0.4933
vn 0.9996 -0.0217 -0.0188
vn -0.9996 -0.0217 -0.0188
vn -0.9995 -0.0231 0.0194
vn 0.9995 -0.0231 0.0194
vn -0.0432 -0.0240 0.9988
vn -0.0432 -0.0240 -0.9988
vn 0.0481 -0.0283 0.9984
vn 0.0481 -0.0283 -0.9984
vn -0.8610 -0.1237 0.4933
vt 0.744022 0.853263
vt 0.766113 0.878444
vt 0.744022 0.878444
vt 0.989999 0.250278
vt 0.997915 0.276367
vt 0.989999 0.276367
vt 0.744022 0.531105
vt 0.766113 0.554088
vt 0.744022 0.554088
vt 0.989999 0.474567
vt 0.997915 0.505823
vt 0.989999 0.505823
vt 0.019085 0.987875
vt 0.000977 1.000977
vt 0.000977 0.987875
vt 0.533733 0.985280
vt 0.515625 1.000977
vt 0.515625 0.985280
vt 0.765625 1.000977
vt 0.745785 0.985280
vt 0.765625 0.985280
vt 0.250977 1.000977
vt 0.231136 0.987875
vt 0.250977 0.987875
vt 0.766113 0.236790
vt 0.744022 0.261971
vt 0.744022 0.236790
vt 0.766113 0.584130
vt 0.744022 0.584130
vt 0.766113 0.561147
vt 0.744022 0.561147
vt 0.745785 1.000977
vt 0.231136 1.000977
vt 0.766113 0.261971
vt 0.231136 0.901439
vt 0.019085 0.885742
vt 0.231136 0.885742
vt 0.533733 0.898844
vt 0.745785 0.898844
vt 0.250977 0.885742
vt 0.765625 0.898844
vt 0.515625 0.898844
vt 0.019085 0.901439
vt 0.000977 0.885742
vt 0.997915 0.302456
vt 0.989999 0.302456
vt 0.997915 0.046911
vt 0.989999 0.078167
vt 0.989999 0.046911
vt 0.515625 0.885742
vt 0.533733 0.885742
vt 0.765625 0.885742
vt 0.745785 0.885742
vt 0.250977 0.901439
vt 0.000977 0.901439
vt 0.997915 0.078167
vt 0.916381 0.250278
vt 0.916381 0.078167
vt 0.916381 0.302456
vt 0.916381 0.276367
vt 0.916381 0.046911
vt 0.916381 0.474567
vt 0.538567 0.531105
vt 0.538567 0.261971
vt 0.538567 0.584130
vt 0.538567 0.561147
vt 0.538567 0.853263
vt 0.538567 0.236790
vt 0.916381 0.505823
vt 0.538567 0.554088
vt 0.538567 0.878444
vt 0.516113 0.878444
vt 0.516113 0.853263
vt 0.908335 0.276367
vt 0.908335 0.250278
vt 0.516113 0.554088
vt 0.516113 0.531105
vt 0.908335 0.505823
vt 0.908335 0.474567
vt 0.516113 0.236790
vt 0.516113 0.261971
vt 0.516113 0.584130
vt 0.516113 0.561147
vt 0.908335 0.302456
vt 0.908335 0.046911
vt 0.908335 0.078167
vt 0.766113 0.853263
vt 0.997915 0.250278
vt 0.766113 0.531105
vt 0.997915 0.474567
vt 0.019085 1.000977
vt 0.533733 1.000977
s 1
usemtl Material.001
f 38/1/38 4/2/4 34/3/34
f 44/4/44 8/5/8 35/6/35
f 40/7/40 6/8/6 36/9/36
f 41/10/41 2/11/2 33/12/33
f 32/13/32 5/14/5 26/15/26
f 23/16/23 2/17/2 20/18/20
f 4/19/4 21/20/21 18/21/18
f 7/22/7 31/23/31 29/24/29
f 8/25/8 37/26/37 35/27/35
f 15/28/15 38/1/38 39/29/39
f 2/30/2 39/29/39 33/31/33
f 10/32/10 23/16/23 21/20/21
f 11/33/11 32/13/32 31/23/31
f 12/34/12 40/7/40 37/26/37
f 22/35/22 13/36/13 9/37/9
f 21/20/21 28/38/28 27/39/27
f 3/40/3 22/35/22 9/37/9
f 18/21/18 27/39/27 25/41/25
f 23/16/23 30/42/30 28/38/28
f 24/43/24 1/44/1 13/36/13
f 30/45/30 41/10/41 43/46/43
f 4/47/4 42/48/42 34/49/34
f 6/5/6 43/46/43 36/6/36
f 28/38/28 6/50/6 14/51/14
f 8/52/8 27/39/27 12/53/12
f 27/39/27 14/51/14 12/53/12
f 31/23/31 24/43/24 22/35/22
f 29/24/29 22/35/22 17/54/17
f 32/13/32 19/55/19 24/43/24
f 18/56/18 44/4/44 42/48/42
f 42/48/42 55/57/55 53/58/53
f 36/6/36 54/59/54 47/60/47
f 34/49/34 53/58/53 45/61/45
f 43/46/43 52/62/52 54/59/54
f 37/26/37 51/63/51 48/64/48
f 33/31/33 50/65/50 56/66/56
f 39/29/39 49/67/49 50/65/50
f 35/27/35 48/64/48 46/68/46
f 41/10/41 56/69/56 52/62/52
f 40/7/40 47/70/47 51/63/51
f 44/4/44 46/60/46 55/57/55
f 38/1/38 45/71/45 49/67/49
f 49/67/49 3/72/3 9/73/9
f 55/57/55 7/74/7 29/75/29
f 51/63/51 5/76/5 16/77/16
f 52/62/52 1/78/1 19/79/19
f 7/80/7 48/64/48 11/81/11
f 50/65/50 9/73/9 13/82/13
f 1/83/1 50/65/50 13/82/13
f 48/64/48 16/77/16 11/81/11
f 54/59/54 19/79/19 26/84/26
f 3/85/3 53/58/53 17/86/17
f 5/74/5 54/59/54 26/84/26
f 53/58/53 29/75/29 17/86/17
f 38/1/38 10/87/10 4/2/4
f 44/4/44 25/88/25 8/5/8
f 40/7/40 14/89/14 6/8/6
f 41/10/41 20/90/20 2/11/2
f 32/13/32 16/91/16 5/14/5
f 23/16/23 15/92/15 2/17/2
f 4/19/4 10/32/10 21/20/21
f 7/22/7 11/33/11 31/23/31
f 8/25/8 12/34/12 37/26/37
f 15/28/15 10/87/10 38/1/38
f 2/30/2 15/28/15 39/29/39
f 10/32/10 15/92/15 23/16/23
f 11/33/11 16/91/16 32/13/32
f 12/34/12 14/89/14 40/7/40
f 22/35/22 24/43/24 13/36/13
f 21/20/21 23/16/23 28/38/28
f 3/40/3 17/54/17 22/35/22
f 18/21/18 21/20/21 27/39/27
f 23/16/23 20/18/20 30/42/30
f 24/43/24 19/55/19 1/44/1
f 30/45/30 20/90/20 41/10/41
f 4/47/4 18/56/18 42/48/42
f 6/5/6 30/45/30 43/46/43
f 28/38/28 30/42/30 6/50/6
f 8/52/8 25/41/25 27/39/27
f 27/39/27 28/38/28 14/51/14
f 31/23/31 32/13/32 24/43/24
f 29/24/29 31/23/31 22/35/22
f 32/13/32 26/15/26 19/55/19
f 18/56/18 25/88/25 44/4/44
f 42/48/42 44/4/44 55/57/55
f 36/6/36 43/46/43 54/59/54
f 34/49/34 42/48/42 53/58/53
f 43/46/43 41/10/41 52/62/52
f 37/26/37 40/7/40 51/63/51
f 33/31/33 39/29/39 50/65/50
f 39/29/39 38/1/38 49/67/49
f 35/27/35 37/26/37 48/64/48
f 41/10/41 33/12/33 56/69/56
f 40/7/40 36/9/36 47/70/47
f 44/4/44 35/6/35 46/60/46
f 38/1/38 34/3/34 45/71/45
f 49/67/49 45/71/45 3/72/3
f 55/57/55 46/60/46 7/74/7
f 51/63/51 47/70/47 5/76/5
f 52/62/52 56/69/56 1/78/1
f 7/80/7 46/68/46 48/64/48
f 50/65/50 49/67/49 9/73/9
f 1/83/1 56/66/56 50/65/50
f 48/64/48 51/63/51 16/77/16
f 54/59/54 52/62/52 19/79/19
f 3/85/3 45/61/45 53/58/53
f 5/74/5 47/60/47 54/59/54
f 53/58/53 55/57/55 29/75/29
