# Blender 5.0.0
# www.blender.org
mtllib fridge2.mtl
o Fridge2
v -2.503549 -0.239781 -5.259066
v -2.503549 13.628630 -5.259066
v -2.503549 -0.239781 -11.802134
v -2.503549 13.628630 -11.802134
v 2.775733 5.158899 -5.483961
v 2.845277 5.351517 -5.483961
v 2.503549 0.441080 -5.859858
v 2.503549 12.947769 -5.859858
v 2.775733 5.158899 -5.742017
v 2.503549 0.441080 -11.201342
v 2.845277 5.351517 -5.742017
v 2.503549 12.947769 -11.201342
v 2.845277 7.602979 -5.742017
v 2.503549 13.628630 -11.802134
v 2.845277 7.602979 -5.483961
v 2.503549 -0.239781 -11.802134
v 2.775733 7.795597 -5.742017
v 2.503549 -0.239781 -5.259066
v 2.775733 7.795597 -5.483961
v 2.503549 13.628630 -5.259066
v 2.316923 12.947769 -11.201342
v 2.316923 0.441080 -11.201342
v 2.697007 5.451631 -5.483961
v 2.316923 0.441080 -5.859858
v 2.316923 12.947769 -5.859858
v 2.697007 7.416395 -5.483961
v 2.697007 7.416395 -5.742017
v 2.697007 5.451631 -5.742017
v 2.697007 5.947506 -5.483961
v 2.630613 7.416395 -5.742017
v 2.697007 7.007720 -5.742017
v 2.570766 7.416395 -5.652355
v 2.503549 7.416395 -5.742016
v 2.503549 7.795597 -5.742017
v 2.503549 5.451631 -5.742017
v 2.503549 7.416395 -5.742017
v 2.503549 5.158899 -5.742017
v 2.503549 5.158899 -5.483961
v 2.503549 5.451631 -5.483961
v 2.503549 7.416395 -5.483961
v 2.503549 7.795597 -5.483961
v 2.503549 5.451631 -5.483962
v 2.503549 7.416395 -5.483962
v 2.052070 -0.239781 -11.802134
v 2.052070 13.628630 -11.802134
v 2.052070 -0.239781 -5.259066
v 2.052070 13.628630 -5.259066
v 1.862705 -0.056971 -11.715884
v 1.862705 13.445820 -11.715884
v 1.862705 -0.056971 -5.345315
v 1.862705 13.445820 -5.345315
v 1.572075 -0.300406 -11.830737
v 1.572075 13.689255 -11.830737
v 1.572075 -0.300406 -5.230462
v 1.572075 13.689255 -5.230462
vn -1.0000 -0.0000 -0.0000
vn -0.0000 -0.0000 -1.0000
vn -0.0000 -1.0000 -0.0000
vn -0.0070 -0.0000 1.0000
vn -0.0149 0.9999 -0.0000
vn 1.0000 -0.0000 -0.0000
vn -0.0000 -0.0000 1.0000
vn -0.0000 1.0000 -0.0000
vn 0.9406 -0.3396 -0.0000
vn 0.9406 0.3396 -0.0000
vn -0.1790 0.9839 -0.0000
vn -0.6945 -0.7194 -0.0000
vn -0.4145 -0.0000 -0.9101
vn 0.3675 -0.0000 -0.9300
vn 0.6421 -0.7666 -0.0000
vn -0.6945 0.7194 -0.0000
vn -0.4145 -0.0000 0.9101
vn -0.0149 -0.9999 -0.0000
vn -0.0070 -0.0000 -1.0000
vn 0.6421 0.7666 -0.0000
vn 0.3675 -0.0000 0.9300
vn -0.6945 0.7195 -0.0000
vt 0.871164 0.010968
vt 0.804145 0.077986
vt 0.804145 0.010968
vt 0.871164 0.138962
vt 0.804145 0.145005
vt 0.804145 0.138962
vt 0.417802 0.948033
vt 0.710791 0.948033
vt 0.871164 0.224491
vt 0.804145 0.279042
vt 0.804145 0.224491
vt 0.798102 0.212024
vt 0.798102 0.145005
vt 0.938183 0.145005
vt 0.883632 0.212024
vt 0.883632 0.145005
vt 0.710791 0.262020
vt 0.743746 0.985379
vt 0.417802 0.262020
vt 0.743746 0.224674
vt 0.384848 0.985379
vt 0.397183 0.536857
vt 0.397183 0.644627
vt 0.411338 0.536857
vt 0.411338 0.644627
vt 0.411338 0.644627
vt 0.397183 0.531366
vt 0.397183 0.665427
vt 0.397183 0.520800
vt 0.411338 0.520800
vt 0.411338 0.531366
vt 0.411338 0.665427
vt 0.411338 0.622211
vt 0.397183 0.654862
vt 0.411338 0.654862
vt 0.406420 0.644627
vt 0.397183 0.564057
vt 0.397183 0.536857
vt 0.877207 0.145005
vt 0.871164 0.212024
vt 0.871164 0.145005
vt 0.795568 0.212024
vt 0.795568 0.145005
vt 0.804145 0.218067
vt 0.804145 0.212024
vt 0.871164 0.136427
vt 0.804145 0.136427
vt 0.871164 0.132537
vt 0.804145 0.132537
vt 0.791678 0.212024
vt 0.791678 0.145005
vt 0.879742 0.145005
vt 0.877207 0.212024
vt 0.871164 0.218067
vt 0.804145 0.220601
vt 0.737127 0.212024
vt 0.737127 0.145005
vt 0.871164 0.077986
vt 0.879742 0.212024
vt 0.871164 0.279042
vt 0.938183 0.212024
vt 0.384848 0.224674
vt 0.397183 0.644627
vt 0.871164 0.220601
s 0
usemtl Material.001
f 2/1/1 3/2/1 1/3/1
f 45/4/2 16/5/2 44/6/2
f 8/7/3 21/8/3 12/8/3
f 55/9/4 1/10/4 54/11/4
f 16/5/3 46/12/3 44/13/3
f 4/14/5 55/15/5 53/16/5
f 10/17/6 14/18/6 12/8/6
f 7/19/6 16/20/6 10/17/6
f 12/8/6 20/21/6 8/7/6
f 20/21/6 39/22/6 40/23/6
f 35/24/6 36/25/6 33/26/6
f 21/8/6 24/19/6 22/17/6
f 12/8/7 22/17/7 10/17/7
f 7/19/2 25/7/2 8/7/2
f 10/17/8 24/19/8 7/19/8
f 6/27/7 19/28/7 26/23/7
f 38/29/7 23/22/7 39/22/7
f 5/29/3 37/30/3 9/30/3
f 6/27/9 9/30/9 11/31/9
f 17/32/2 28/24/2 31/33/2
f 15/34/6 11/31/6 13/35/6
f 13/35/10 19/28/10 15/34/10
f 17/32/8 41/28/8 19/28/8
f 32/36/3 27/25/3 40/23/3
f 30/25/3 33/26/3 36/25/3
f 28/24/1 29/37/1 31/33/1
f 26/23/1 31/33/1 29/37/1
f 28/24/11 42/38/11 39/22/11
f 45/39/8 20/40/8 14/41/8
f 44/13/12 50/42/12 48/43/12
f 20/40/7 46/44/7 18/45/7
f 49/46/13 44/6/13 48/47/13
f 53/48/14 48/47/14 52/49/14
f 48/43/15 54/50/15 52/51/15
f 49/52/16 47/53/16 45/39/16
f 47/54/17 50/55/17 46/44/17
f 52/51/18 1/56/18 3/57/18
f 4/58/19 52/49/19 3/2/19
f 53/16/20 51/59/20 49/52/20
f 50/55/21 55/9/21 54/11/21
f 2/1/1 4/58/1 3/2/1
f 45/4/2 14/41/2 16/5/2
f 8/7/3 25/7/3 21/8/3
f 55/9/4 2/60/4 1/10/4
f 16/5/3 18/45/3 46/12/3
f 4/14/5 2/61/5 55/15/5
f 10/17/6 16/20/6 14/18/6
f 7/19/6 18/62/6 16/20/6
f 12/8/6 14/18/6 20/21/6
f 41/28/6 34/32/6 8/7/6
f 18/62/6 7/19/6 37/30/6
f 18/62/6 37/30/6 38/29/6
f 41/28/6 8/7/6 20/21/6
f 42/38/6 43/63/6 40/23/6
f 40/23/6 41/28/6 20/21/6
f 20/21/6 18/62/6 38/29/6
f 39/22/6 42/38/6 40/23/6
f 20/21/6 38/29/6 39/22/6
f 43/63/6 42/38/6 35/24/6
f 35/24/6 37/30/6 7/19/6
f 7/19/6 8/7/6 34/32/6
f 7/19/6 34/32/6 36/25/6
f 33/26/6 43/63/6 35/24/6
f 35/24/6 7/19/6 36/25/6
f 21/8/6 25/7/6 24/19/6
f 12/8/7 21/8/7 22/17/7
f 7/19/2 24/19/2 25/7/2
f 10/17/8 22/17/8 24/19/8
f 26/23/8 29/37/8 23/22/8
f 23/22/7 5/29/7 6/27/7
f 6/27/7 15/34/7 19/28/7
f 19/28/7 41/28/7 40/23/7
f 26/23/7 23/22/7 6/27/7
f 19/28/7 40/23/7 26/23/7
f 38/29/7 5/29/7 23/22/7
f 5/29/3 38/29/3 37/30/3
f 6/27/9 5/29/9 9/30/9
f 36/25/2 34/32/2 17/32/2
f 17/32/2 13/35/2 11/31/2
f 11/31/2 9/30/2 37/30/2
f 37/30/2 35/24/2 28/24/2
f 11/31/2 37/30/2 28/24/2
f 30/25/2 36/25/2 17/32/2
f 27/25/2 30/25/2 17/32/2
f 17/32/2 11/31/2 28/24/2
f 31/33/2 27/25/2 17/32/2
f 15/34/6 6/27/6 11/31/6
f 13/35/10 17/32/10 19/28/10
f 17/32/8 34/32/8 41/28/8
f 43/63/3 33/26/3 32/36/3
f 32/36/3 30/25/3 27/25/3
f 27/25/3 26/23/3 40/23/3
f 40/23/8 43/63/8 32/36/8
f 30/25/3 32/36/3 33/26/3
f 28/24/1 23/22/1 29/37/1
f 26/23/1 27/25/1 31/33/1
f 39/22/8 23/22/8 28/24/8
f 28/24/8 35/24/8 42/38/8
f 45/39/8 47/53/8 20/40/8
f 44/13/12 46/12/12 50/42/12
f 20/40/7 47/54/7 46/44/7
f 49/46/13 45/4/13 44/6/13
f 53/48/14 49/46/14 48/47/14
f 48/43/15 50/42/15 54/50/15
f 49/52/22 51/59/22 47/53/22
f 47/54/17 51/64/17 50/55/17
f 52/51/18 54/50/18 1/56/18
f 4/58/19 53/48/19 52/49/19
f 53/16/20 55/15/20 51/59/20
f 50/55/21 51/64/21 55/9/21
