# Blender 5.0.0
# www.blender.org
mtllib aisle2 sign.mtl
o Aisle_2
v -0.320908 13.612709 11.519707
v -0.320908 18.475391 11.519707
v -0.320908 13.612709 4.818642
v -0.320908 18.475391 4.818642
v 0.320908 13.612709 11.519707
v 0.320908 18.475391 11.519707
v 0.320908 13.612709 4.818642
v 0.320908 18.475391 4.818642
v -1.000000 13.612709 8.169174
v -1.000000 18.475391 8.169174
v 1.000000 13.612709 8.169174
v 1.000000 18.475391 8.169174
v -0.825780 13.612709 9.844440
v 0.825780 18.475391 9.844440
v -0.825780 18.475391 9.844440
v 0.825780 13.612709 9.844440
v -0.825780 18.475391 6.493908
v 0.825780 13.612709 6.493908
v -0.825780 13.612709 6.493908
v 0.825780 18.475391 6.493908
v -0.320908 16.044050 11.519707
v -0.320908 16.044050 4.818642
v 0.320908 16.044050 4.818642
v 0.320908 16.044050 11.519707
v 1.000000 16.044050 8.169174
v -1.000000 16.044050 8.169174
v -0.825780 16.044050 9.844440
v 0.825780 16.044050 9.844440
v 0.825780 16.044050 6.493908
v -0.825780 16.044050 6.493908
v -0.320908 14.828380 4.818642
v 0.320908 14.828380 4.818642
v 0.320908 14.828380 11.519707
v 1.000000 14.828380 8.169174
v -1.000000 14.828380 8.169174
v -0.825780 14.828380 9.844440
v 0.825780 14.828380 9.844440
v 0.825780 14.828380 6.493908
v -0.825780 14.828380 6.493908
v -0.320908 14.828380 11.519707
v -0.320908 14.220544 4.818642
v 0.320908 14.220544 4.818642
v 0.320908 14.220544 11.519707
v 1.000000 14.220544 8.169174
v -1.000000 14.220544 8.169174
v -0.825780 14.220544 9.844440
v 0.825780 14.220544 9.844440
v 0.825780 14.220544 6.493908
v -0.825780 14.220544 6.493908
v -0.320908 14.220544 11.519707
v -0.320908 15.391252 11.519707
v -0.320908 15.391252 4.818642
v 0.320908 15.391252 4.818642
v 0.320908 15.391252 11.519707
v 1.000000 15.391252 8.169174
v -1.000000 15.391252 8.169174
v -0.825780 15.391252 9.844440
v 0.825780 15.391252 9.844440
v 0.825780 15.391252 6.493908
v -0.825780 15.391252 6.493908
v -0.368741 15.391252 11.909297
v -0.368741 16.044050 11.909297
v -1.125731 16.044050 8.169174
v -0.932122 16.044050 6.269150
v 0.368741 16.044050 4.429051
v 0.932122 16.044050 6.269150
v 1.125731 16.044050 8.169174
v 0.932122 16.044050 10.069198
v -0.932122 16.044050 10.069198
v 0.368741 16.044050 11.909297
v -0.368741 16.044050 4.429051
v -0.368741 15.391252 4.429051
v 0.368741 15.391252 4.429051
v 0.368741 15.391252 11.909297
v 1.125731 15.391252 8.169174
v -1.125731 15.391252 8.169174
v -0.932122 15.391252 10.069198
v 0.932122 15.391252 10.069198
v 0.932122 15.391252 6.269150
v -0.932122 15.391252 6.269150
v -0.375913 14.220544 11.967706
v -0.375913 14.828380 11.967706
v -0.948065 14.828380 6.235454
v -0.375913 14.828380 4.370643
v 0.375913 14.828380 4.370643
v 0.948065 14.828380 10.102895
v 0.375913 14.828380 11.967706
v 0.948065 14.828380 6.235454
v 1.144582 14.828380 8.169174
v -0.948065 14.828380 10.102895
v -1.144582 14.828380 8.169174
v -0.375913 14.220544 4.370643
v 0.375913 14.220544 4.370643
v 0.375913 14.220544 11.967706
v 1.144582 14.220544 8.169174
v -1.144582 14.220544 8.169174
v -0.948065 14.220544 10.102895
v 0.948065 14.220544 10.102895
v 0.948065 14.220544 6.235454
v -0.948065 14.220544 6.235454
vn -0.6596 -0.5795 0.4786
vn -0.6596 0.5795 0.4786
vn -0.6596 -0.5795 -0.4786
vn -0.6596 0.5795 -0.4786
vn 0.6596 -0.5795 0.4786
vn 0.6596 0.5795 0.4786
vn 0.6596 -0.5795 -0.4786
vn 0.6596 0.5795 -0.4786
vn -0.9460 -0.3241 -0.0000
vn -0.9460 0.3241 -0.0000
vn 0.9460 -0.3241 -0.0000
vn 0.9460 0.3241 -0.0000
vn -0.9062 -0.3868 0.1706
vn 0.9062 0.3868 0.1706
vn -0.9062 0.3868 0.1706
vn 0.9062 -0.3868 0.1706
vn -0.9062 0.3868 -0.1706
vn 0.9062 -0.3868 -0.1706
vn -0.9062 -0.3868 -0.1706
vn 0.9062 0.3868 -0.1706
vn -0.5230 0.7632 0.3794
vn -0.5230 0.7632 -0.3794
vn 0.5230 0.7632 -0.3794
vn 0.5230 0.7632 0.3794
vn 0.8841 0.4673 -0.0000
vn -0.8841 0.4673 -0.0000
vn -0.8569 0.4896 0.1613
vn 0.8569 0.4896 0.1613
vn 0.8569 0.4896 -0.1613
vn -0.8569 0.4896 -0.1613
vn -0.5230 0.7633 -0.3794
vn 0.5230 0.7633 0.3794
vn -0.8569 0.4897 0.1613
vn 0.8569 0.4897 0.1613
vn 0.8569 0.4897 -0.1613
vn -0.8569 0.4897 -0.1613
vn -0.5230 -0.7632 -0.3794
vn 0.5230 -0.7633 -0.3794
vn 0.5230 -0.7632 0.3794
vn 0.8841 -0.4673 -0.0000
vn -0.8841 -0.4673 -0.0000
vn -0.8569 -0.4897 0.1613
vn 0.8569 -0.4897 0.1613
vn 0.8569 -0.4897 -0.1613
vn -0.8569 -0.4897 -0.1613
vn -0.5230 -0.7633 0.3794
vn -0.5229 -0.7633 0.3794
vn 0.5229 -0.7633 -0.3794
vn -0.6554 -0.5824 0.4809
vn -0.6554 0.5824 0.4809
vn -0.9457 0.3249 -0.0000
vn -0.9066 0.3858 -0.1710
vn 0.6554 0.5824 -0.4809
vn 0.9066 0.3858 -0.1710
vn 0.9457 0.3249 -0.0000
vn 0.9066 0.3858 0.1710
vn -0.9066 0.3858 0.1710
vn 0.6554 0.5824 0.4809
vn -0.6554 0.5824 -0.4809
vn -0.6554 -0.5824 -0.4809
vn 0.6554 -0.5824 -0.4809
vn 0.6554 -0.5824 0.4809
vn 0.9457 -0.3249 -0.0000
vn -0.9457 -0.3249 -0.0000
vn -0.9066 -0.3858 0.1710
vn 0.9066 -0.3858 0.1710
vn 0.9066 -0.3858 -0.1710
vn -0.9066 -0.3858 -0.1710
vn -0.6548 -0.5828 0.4812
vn -0.6548 0.5828 0.4812
vn -0.9067 0.3856 -0.1710
vn -0.6548 0.5828 -0.4812
vn 0.6548 0.5828 -0.4812
vn 0.9067 0.3856 0.1710
vn 0.6548 0.5828 0.4812
vn 0.9067 0.3856 -0.1711
vn 0.9457 0.3250 -0.0000
vn -0.9067 0.3856 0.1711
vn -0.9457 0.3250 -0.0000
vn -0.6548 -0.5828 -0.4812
vn 0.6548 -0.5828 -0.4812
vn 0.6548 -0.5828 0.4812
vn 0.9457 -0.3250 -0.0000
vn -0.9457 -0.3250 -0.0000
vn -0.9067 -0.3856 0.1710
vn 0.9067 -0.3856 0.1711
vn 0.9067 -0.3856 -0.1710
vn -0.9067 -0.3856 -0.1711
vt 0.320052 0.644245
vt 0.257552 0.769245
vt 0.257552 0.644245
vt 0.030481 0.252191
vt 0.005274 0.127191
vt 0.030481 0.127191
vt 0.065772 0.644556
vt 0.003272 0.769556
vt 0.003272 0.644556
vt 0.030191 0.252191
vt 0.004984 0.127191
vt 0.030191 0.127191
vt 0.034610 0.189115
vt 0.047767 0.251615
vt 0.047767 0.189115
vt 0.034676 0.189115
vt 0.047833 0.251615
vt 0.047833 0.189115
vt 0.034676 0.064115
vt 0.047833 0.126615
vt 0.047833 0.064115
vt 0.034610 0.064115
vt 0.047767 0.126615
vt 0.047767 0.064115
vt 0.190772 0.769556
vt 0.128272 0.644556
vt 0.190772 0.644556
vt 0.445052 0.769245
vt 0.382552 0.644245
vt 0.445052 0.644245
vt 0.507552 0.769245
vt 0.507552 0.644245
vt 0.034676 0.126615
vt 0.034610 0.126615
vt 0.065772 0.769556
vt 0.253272 0.769556
vt 0.253272 0.644556
vt 0.034610 0.001615
vt 0.047767 0.001615
vt 0.034676 0.001615
vt 0.047833 0.001615
vt 0.320052 0.769245
vt 0.257552 0.610683
vt 0.320052 0.610683
vt 0.128272 0.610994
vt 0.065772 0.610994
vt 0.507552 0.610683
vt 0.445052 0.610683
vt 0.382552 0.610683
vt 0.190772 0.610994
vt 0.128272 0.550806
vt 0.190772 0.550806
vt 0.003272 0.582056
vt 0.065772 0.582056
vt 0.382552 0.550495
vt 0.445052 0.550495
vt 0.382552 0.581745
vt 0.320052 0.581745
vt 0.005274 0.064691
vt 0.030481 0.064691
vt 0.507552 0.550495
vt 0.253272 0.582056
vt 0.190772 0.582056
vt 0.257552 0.581745
vt 0.065772 0.550806
vt 0.128272 0.582056
vt 0.320052 0.519245
vt 0.382552 0.519245
vt 0.253272 0.550806
vt 0.190772 0.519556
vt 0.253272 0.519556
vt 0.065772 0.519556
vt 0.128272 0.519556
vt 0.445052 0.519245
vt 0.507552 0.519245
vt 0.030191 0.033441
vt 0.004984 0.002191
vt 0.030191 0.002191
vt 0.003272 0.519556
vt 0.030481 0.033441
vt 0.005274 0.002191
vt 0.030481 0.002191
vt 0.320052 0.550495
vt 0.257552 0.519245
vt 0.030481 0.093630
vt 0.030191 0.093630
vt 0.004984 0.064691
vt 0.030191 0.064691
vt 0.445052 0.581745
vt 0.507552 0.581745
vt 0.253272 0.610994
vt 0.004984 0.093630
vt 0.003272 0.610994
vt 0.005274 0.093630
vt 0.257552 0.550495
vt 0.005274 0.033441
vt 0.003272 0.550806
vt 0.004984 0.033441
vt 0.005274 0.252191
vt 0.004984 0.252191
vt 0.034610 0.251615
vt 0.034676 0.251615
vt 0.128272 0.769556
vt 0.382552 0.769245
s 1
usemtl Material.002
f 30/1/30 4/2/4 22/3/22
f 4/4/4 23/5/23 22/6/22
f 28/7/28 6/8/6 24/9/24
f 6/10/6 21/11/21 24/12/24
f 16/13/16 1/14/1 13/15/13
f 15/16/15 6/17/6 14/18/14
f 17/19/17 12/20/12 20/21/20
f 18/22/18 9/23/9 19/24/19
f 20/25/20 25/26/25 29/27/29
f 15/28/15 26/29/26 27/30/27
f 2/31/2 27/30/27 21/32/21
f 10/33/10 14/18/14 12/20/12
f 11/34/11 13/15/13 9/23/9
f 25/26/25 14/35/14 28/7/28
f 8/36/8 29/27/29 23/37/23
f 7/38/7 19/24/19 3/39/3
f 4/40/4 20/21/20 8/41/8
f 26/29/26 17/42/17 30/1/30
f 52/43/37 80/44/68 72/43/60
f 23/5/23 71/6/59 22/6/22
f 55/45/40 78/46/66 58/46/43
f 26/29/26 64/1/52 63/29/51
f 24/9/24 68/7/56 28/7/28
f 51/47/47 77/48/65 57/48/42
f 21/11/21 70/12/58 24/12/24
f 56/49/41 77/48/65 76/49/64
f 25/26/25 66/27/54 29/27/29
f 55/45/40 79/50/67 75/45/63
f 44/51/40 99/52/87 95/51/83
f 33/53/32 86/54/74 37/54/34
f 45/55/41 97/56/85 96/55/84
f 35/57/26 83/58/71 91/57/79
f 32/59/23 84/60/72 31/60/31
f 50/61/46 97/56/85 46/56/42
f 32/62/23 88/63/76 85/62/73
f 31/64/31 83/58/71 39/58/36
f 44/51/40 98/65/86 47/65/43
f 34/66/25 86/54/74 89/66/77
f 45/55/41 19/67/19 9/68/9
f 42/69/38 18/70/18 7/71/7
f 44/51/40 16/72/16 11/73/11
f 50/61/46 13/74/13 1/75/1
f 46/56/42 9/68/9 13/74/13
f 48/52/44 11/73/11 18/70/18
f 43/76/39 1/77/1 5/78/5
f 47/65/43 5/79/5 16/72/16
f 41/80/37 7/81/7 3/82/3
f 49/83/45 3/84/3 19/67/19
f 60/44/45 31/64/31 39/58/36
f 52/85/37 32/59/23 31/60/31
f 58/46/43 33/53/32 37/54/34
f 54/86/39 40/87/21 33/88/32
f 59/50/44 34/66/25 38/63/35
f 57/48/42 35/57/26 36/89/33
f 51/47/47 36/89/33 40/90/21
f 55/45/40 37/54/34 34/66/25
f 53/91/48 38/63/35 32/62/23
f 56/49/41 39/58/36 35/57/26
f 63/29/51 80/44/68 76/49/64
f 65/37/53 79/50/67 73/91/61
f 67/26/55 78/46/66 75/45/63
f 62/32/50 77/48/65 61/47/49
f 69/30/57 76/49/64 77/48/65
f 66/27/54 75/45/63 79/50/67
f 70/12/58 61/92/49 74/86/62
f 68/7/56 74/93/62 78/46/66
f 71/6/59 73/94/61 72/85/60
f 64/1/52 72/43/60 80/44/68
f 23/37/23 66/27/54 65/37/53
f 53/91/48 79/50/67 59/50/44
f 22/3/22 64/1/52 30/1/30
f 52/85/37 73/94/61 53/94/48
f 25/26/25 68/7/56 67/26/55
f 56/49/41 80/44/68 60/44/45
f 54/93/39 78/46/66 74/93/62
f 21/32/21 69/30/57 62/32/50
f 54/86/39 61/92/49 51/92/47
f 26/29/26 69/30/57 27/30/27
f 83/58/71 92/95/80 100/83/88
f 84/60/72 93/96/81 92/80/80
f 86/54/74 94/97/82 98/65/86
f 87/88/75 81/98/69 94/76/82
f 88/63/76 95/51/83 99/52/87
f 90/89/78 96/55/84 97/56/85
f 82/90/70 97/56/85 81/61/69
f 89/66/77 98/65/86 95/51/83
f 85/62/73 99/52/87 93/69/81
f 91/57/79 100/83/88 96/55/84
f 40/87/21 87/88/75 33/88/32
f 43/76/39 81/98/69 50/98/46
f 34/66/25 88/63/76 38/63/35
f 43/97/39 98/65/86 94/97/82
f 35/57/26 90/89/78 36/89/33
f 45/55/41 100/83/88 49/83/45
f 41/80/37 93/96/81 42/96/38
f 40/90/21 90/89/78 82/90/70
f 42/69/38 99/52/87 48/52/44
f 41/95/37 100/83/88 92/95/80
f 30/1/30 17/42/17 4/2/4
f 4/4/4 8/99/8 23/5/23
f 28/7/28 14/35/14 6/8/6
f 6/10/6 2/100/2 21/11/21
f 16/13/16 5/101/5 1/14/1
f 15/16/15 2/102/2 6/17/6
f 17/19/17 10/33/10 12/20/12
f 18/22/18 11/34/11 9/23/9
f 20/25/20 12/103/12 25/26/25
f 15/28/15 10/104/10 26/29/26
f 2/31/2 15/28/15 27/30/27
f 10/33/10 15/16/15 14/18/14
f 11/34/11 16/13/16 13/15/13
f 25/26/25 12/103/12 14/35/14
f 8/36/8 20/25/20 29/27/29
f 7/38/7 18/22/18 19/24/19
f 4/40/4 17/19/17 20/21/20
f 26/29/26 10/104/10 17/42/17
f 52/43/37 60/44/45 80/44/68
f 23/5/23 65/5/53 71/6/59
f 55/45/40 75/45/63 78/46/66
f 26/29/26 30/1/30 64/1/52
f 24/9/24 70/9/58 68/7/56
f 51/47/47 61/47/49 77/48/65
f 21/11/21 62/11/50 70/12/58
f 56/49/41 57/48/42 77/48/65
f 25/26/25 67/26/55 66/27/54
f 55/45/40 59/50/44 79/50/67
f 44/51/40 48/52/44 99/52/87
f 33/53/32 87/53/75 86/54/74
f 45/55/41 46/56/42 97/56/85
f 35/57/26 39/58/36 83/58/71
f 32/59/23 85/59/73 84/60/72
f 50/61/46 81/61/69 97/56/85
f 32/62/23 38/63/35 88/63/76
f 31/64/31 84/64/72 83/58/71
f 44/51/40 95/51/83 98/65/86
f 34/66/25 37/54/34 86/54/74
f 45/55/41 49/83/45 19/67/19
f 42/69/38 48/52/44 18/70/18
f 44/51/40 47/65/43 16/72/16
f 50/61/46 46/56/42 13/74/13
f 46/56/42 45/55/41 9/68/9
f 48/52/44 44/51/40 11/73/11
f 43/76/39 50/98/46 1/77/1
f 47/65/43 43/97/39 5/79/5
f 41/80/37 42/96/38 7/81/7
f 49/83/45 41/95/37 3/84/3
f 60/44/45 52/43/37 31/64/31
f 52/85/37 53/94/48 32/59/23
f 58/46/43 54/93/39 33/53/32
f 54/86/39 51/92/47 40/87/21
f 59/50/44 55/45/40 34/66/25
f 57/48/42 56/49/41 35/57/26
f 51/47/47 57/48/42 36/89/33
f 55/45/40 58/46/43 37/54/34
f 53/91/48 59/50/44 38/63/35
f 56/49/41 60/44/45 39/58/36
f 63/29/51 64/1/52 80/44/68
f 65/37/53 66/27/54 79/50/67
f 67/26/55 68/7/56 78/46/66
f 62/32/50 69/30/57 77/48/65
f 69/30/57 63/29/51 76/49/64
f 66/27/54 67/26/55 75/45/63
f 70/12/58 62/11/50 61/92/49
f 68/7/56 70/9/58 74/93/62
f 71/6/59 65/5/53 73/94/61
f 64/1/52 71/3/59 72/43/60
f 23/37/23 29/27/29 66/27/54
f 53/91/48 73/91/61 79/50/67
f 22/3/22 71/3/59 64/1/52
f 52/85/37 72/85/60 73/94/61
f 25/26/25 28/7/28 68/7/56
f 56/49/41 76/49/64 80/44/68
f 54/93/39 58/46/43 78/46/66
f 21/32/21 27/30/27 69/30/57
f 54/86/39 74/86/62 61/92/49
f 26/29/26 63/29/51 69/30/57
f 83/58/71 84/64/72 92/95/80
f 84/60/72 85/59/73 93/96/81
f 86/54/74 87/53/75 94/97/82
f 87/88/75 82/87/70 81/98/69
f 88/63/76 89/66/77 95/51/83
f 90/89/78 91/57/79 96/55/84
f 82/90/70 90/89/78 97/56/85
f 89/66/77 86/54/74 98/65/86
f 85/62/73 88/63/76 99/52/87
f 91/57/79 83/58/71 100/83/88
f 40/87/21 82/87/70 87/88/75
f 43/76/39 94/76/82 81/98/69
f 34/66/25 89/66/77 88/63/76
f 43/97/39 47/65/43 98/65/86
f 35/57/26 91/57/79 90/89/78
f 45/55/41 96/55/84 100/83/88
f 41/80/37 92/80/80 93/96/81
f 40/90/21 36/89/33 90/89/78
f 42/69/38 93/69/81 99/52/87
f 41/95/37 49/83/45 100/83/88
