# Blender 5.0.0
# www.blender.org
mtllib aisle3 sign.mtl
o Aisle_3
v -0.320908 13.612709 -4.564734
v -0.320908 18.475391 -4.564734
v -0.320908 13.612709 -11.265799
v -0.320908 18.475391 -11.265799
v 0.320908 13.612709 -4.564734
v 0.457579 17.763294 -5.481861
v 0.320908 13.612709 -11.265799
v 0.320908 18.475391 -11.265799
v -1.000000 13.612709 -7.915266
v -1.000000 18.475391 -7.915266
v 1.000000 13.612709 -7.915266
v 1.000000 18.475391 -7.915266
v -0.825780 13.612709 -6.240000
v 0.825780 18.475391 -6.240000
v -0.825780 18.475391 -6.240000
v 0.825780 13.612709 -6.240000
v -0.825780 18.475391 -9.590532
v 0.825780 13.612709 -9.590532
v -0.825780 13.612709 -9.590532
v 0.825780 18.475391 -9.590532
v -0.320908 16.044050 -4.564734
v -0.320908 16.044050 -11.265799
v 0.320908 16.044050 -11.265799
v 0.320908 16.044050 -4.564734
v 1.000000 16.044050 -7.915266
v -1.000000 16.044050 -7.915266
v -0.825780 16.044050 -6.240000
v 0.825780 16.044050 -6.240000
v 0.825780 16.044050 -9.590532
v -0.825780 16.044050 -9.590532
v -0.320908 14.828380 -11.265799
v 0.320908 14.828380 -11.265799
v 0.320908 14.828380 -4.564734
v 1.000000 14.828380 -7.915266
v -1.000000 14.828380 -7.915266
v -0.825780 14.828380 -6.240000
v 0.825780 14.828380 -6.240000
v 0.825780 14.828380 -9.590532
v -0.825780 14.828380 -9.590532
v -0.320908 14.828380 -4.564734
v -0.320908 14.220544 -11.265799
v 0.320908 14.220544 -11.265799
v 0.320908 14.220544 -4.564734
v 1.000000 14.220544 -7.915266
v -1.000000 14.220544 -7.915266
v -0.825780 14.220544 -6.240000
v 0.825780 14.220544 -6.240000
v 0.825780 14.220544 -9.590532
v -0.825780 14.220544 -9.590532
v -0.320908 14.220544 -4.564734
v -0.320908 15.391252 -4.564734
v -0.320908 15.391252 -11.265799
v 0.320908 15.391252 -11.265799
v 0.320908 15.391252 -4.564734
v 1.000000 15.391252 -7.915266
v -1.000000 15.391252 -7.915266
v -0.825780 15.391252 -6.240000
v 0.825780 15.391252 -6.240000
v 0.825780 15.391252 -9.590532
v -0.825780 15.391252 -9.590532
v -0.368741 15.391252 -4.175143
v -0.368741 16.044050 -4.175143
v -1.125731 16.044050 -7.915266
v -0.932122 16.044050 -9.815289
v 0.368741 16.044050 -11.655389
v 0.932122 16.044050 -9.815289
v 1.125731 16.044050 -7.915266
v 0.932122 16.044050 -6.015242
v -0.932122 16.044050 -6.015242
v 0.368741 16.044050 -4.175143
v -0.368741 16.044050 -11.655389
v -0.368741 15.391252 -11.655389
v 0.368741 15.391252 -11.655389
v 0.368741 15.391252 -4.175143
v 1.125731 15.391252 -7.915266
v -1.125731 15.391252 -7.915266
v -0.932122 15.391252 -6.015242
v 0.932122 15.391252 -6.015242
v 0.932122 15.391252 -9.815289
v -0.932122 15.391252 -9.815289
v -0.375913 14.220544 -4.116735
v -0.375913 14.828380 -4.116735
v -0.948065 14.828380 -9.848987
v -0.375913 14.828380 -11.713798
v 0.375913 14.828380 -11.713798
v 0.948065 14.828380 -5.981545
v 0.375913 14.828380 -4.116735
v 0.948065 14.828380 -9.848987
v 1.144582 14.828380 -7.915266
v -0.948065 14.828380 -5.981545
v -1.144582 14.828380 -7.915266
v -0.375913 14.220544 -11.713798
v 0.375913 14.220544 -11.713798
v 0.375913 14.220544 -4.116735
v 1.144582 14.220544 -7.915266
v -1.144582 14.220544 -7.915266
v -0.948065 14.220544 -5.981545
v 0.948065 14.220544 -5.981545
v 0.948065 14.220544 -9.848987
v -0.948065 14.220544 -9.848987
v 0.320908 17.056427 -4.564734
v 0.432724 16.914078 -4.935761
v 0.538124 17.542227 -5.285499
v 0.612026 17.113646 -5.530721
v 0.739304 17.976503 -5.953054
v -0.069843 18.475391 -4.564734
v -0.054002 17.965462 -4.564734
v 0.179213 17.792456 -4.564734
v 0.105561 17.078270 -4.564734
v 0.007276 18.475391 -5.456601
v 0.267841 18.475391 -5.454686
v 0.264482 18.475391 -5.998593
v 0.319515 18.022659 -5.252015
vn -0.6596 -0.5795 0.4786
vn -0.6596 0.5795 0.4786
vn -0.6596 -0.5795 -0.4786
vn -0.6596 0.5795 -0.4786
vn 0.6596 -0.5795 0.4786
vn 0.7508 0.5136 0.4152
vn 0.6596 -0.5795 -0.4786
vn 0.6596 0.5795 -0.4786
vn -0.9460 -0.3241 -0.0000
vn -0.9460 0.3241 -0.0000
vn 0.9460 -0.3241 -0.0000
vn 0.9460 0.3241 -0.0000
vn -0.9062 -0.3868 0.1706
vn 0.8652 0.4318 0.2550
vn -0.9062 0.3868 0.1706
vn 0.9062 -0.3868 0.1706
vn -0.9062 0.3868 -0.1706
vn 0.9062 -0.3868 -0.1706
vn -0.9062 -0.3868 -0.1706
vn 0.9062 0.3868 -0.1706
vn -0.5230 0.7632 0.3794
vn -0.5230 0.7632 -0.3794
vn 0.5230 0.7632 -0.3794
vn 0.5230 0.7632 0.3794
vn 0.8841 0.4673 -0.0000
vn -0.8841 0.4673 -0.0000
vn -0.8569 0.4896 0.1613
vn 0.8569 0.4897 0.1613
vn 0.8569 0.4896 -0.1613
vn -0.8569 0.4896 -0.1613
vn -0.5230 0.7633 -0.3794
vn 0.5230 0.7633 0.3794
vn -0.8569 0.4897 0.1613
vn 0.8569 0.4897 -0.1613
vn -0.8569 0.4897 -0.1613
vn -0.5230 -0.7632 -0.3794
vn 0.5230 -0.7633 -0.3794
vn 0.5230 -0.7632 0.3794
vn 0.8841 -0.4673 -0.0000
vn -0.8841 -0.4673 -0.0000
vn -0.8569 -0.4897 0.1613
vn 0.8569 -0.4897 0.1613
vn 0.8569 -0.4897 -0.1613
vn -0.8569 -0.4897 -0.1613
vn -0.5230 -0.7633 0.3794
vn -0.5229 -0.7633 0.3794
vn 0.5229 -0.7633 -0.3794
vn -0.6554 -0.5824 0.4809
vn -0.6554 0.5824 0.4809
vn -0.9457 0.3249 -0.0000
vn -0.9066 0.3858 -0.1710
vn 0.6554 0.5824 -0.4809
vn 0.9066 0.3858 -0.1710
vn 0.9457 0.3249 -0.0000
vn 0.9066 0.3858 0.1710
vn -0.9066 0.3858 0.1710
vn 0.6554 0.5824 0.4809
vn -0.6554 0.5824 -0.4809
vn -0.6554 -0.5824 -0.4809
vn 0.6554 -0.5824 -0.4809
vn 0.6554 -0.5824 0.4809
vn 0.9457 -0.3249 -0.0000
vn -0.9457 -0.3249 -0.0000
vn -0.9066 -0.3858 0.1710
vn 0.9066 -0.3858 0.1710
vn 0.9066 -0.3858 -0.1710
vn -0.9066 -0.3858 -0.1710
vn -0.6548 -0.5828 0.4812
vn -0.6548 0.5828 0.4812
vn -0.9067 0.3856 -0.1710
vn -0.6548 0.5828 -0.4812
vn 0.6548 0.5828 -0.4812
vn 0.9067 0.3856 0.1710
vn 0.6548 0.5828 0.4812
vn 0.9067 0.3856 -0.1711
vn 0.9457 0.3250 -0.0000
vn -0.9067 0.3856 0.1711
vn -0.9457 0.3250 -0.0000
vn -0.6548 -0.5828 -0.4812
vn 0.6548 -0.5828 -0.4812
vn 0.6548 -0.5828 0.4812
vn 0.9457 -0.3250 -0.0000
vn -0.9457 -0.3250 -0.0000
vn -0.9067 -0.3856 0.1710
vn 0.9067 -0.3856 0.1711
vn 0.9067 -0.3856 -0.1710
vn -0.9067 -0.3856 -0.1711
vn 0.8617 0.1092 0.4956
vn 0.9527 0.0327 0.3020
vn 0.9093 0.2025 0.3635
vn 0.9575 -0.0000 0.2885
vn 0.8925 0.1461 0.4267
vn 0.8247 0.4489 0.3442
vn 0.6378 0.2281 0.7356
vn 0.6721 0.5080 0.5386
vn -0.0000 -0.0000 1.0000
vn 0.4664 0.8672 0.1743
vn 0.5403 0.5132 0.6668
vn 0.2512 0.9669 0.0449
vn 0.9014 0.3795 0.2086
vt 0.320052 0.384039
vt 0.257552 0.509040
vt 0.257552 0.384039
vt 0.030481 0.252191
vt 0.005274 0.127191
vt 0.030481 0.127191
vt 0.065772 0.384350
vt 0.021618 0.379281
vt 0.011728 0.384510
vt 0.020441 0.234170
vt 0.019996 0.252901
vt 0.004984 0.127191
vt 0.034610 0.189115
vt 0.047767 0.251615
vt 0.047767 0.189115
vt 0.034676 0.189115
vt 0.038931 0.228716
vt 0.040566 0.214270
vt 0.034676 0.064115
vt 0.047833 0.126615
vt 0.047833 0.064115
vt 0.034610 0.064115
vt 0.047767 0.126615
vt 0.047767 0.064115
vt 0.190772 0.509350
vt 0.128272 0.384350
vt 0.190772 0.384350
vt 0.445052 0.509040
vt 0.382552 0.384039
vt 0.445052 0.384039
vt 0.507552 0.509039
vt 0.507552 0.384039
vt 0.034676 0.126615
vt 0.043565 0.207835
vt 0.034610 0.126615
vt 0.056382 0.436631
vt 0.253272 0.509350
vt 0.253272 0.384350
vt 0.034610 0.001615
vt 0.047767 0.001615
vt 0.034676 0.001615
vt 0.047833 0.001615
vt 0.320052 0.509040
vt 0.257552 0.350478
vt 0.320052 0.350478
vt 0.128272 0.350789
vt 0.065772 0.350789
vt 0.003272 0.384350
vt 0.507552 0.350478
vt 0.445052 0.350478
vt 0.030191 0.127191
vt 0.382552 0.350478
vt 0.190772 0.350789
vt 0.128272 0.290600
vt 0.190772 0.290600
vt 0.003272 0.321850
vt 0.065772 0.321850
vt 0.382552 0.290289
vt 0.445052 0.290289
vt 0.382552 0.321539
vt 0.320052 0.321539
vt 0.005274 0.064691
vt 0.030481 0.064691
vt 0.507552 0.290289
vt 0.253272 0.321850
vt 0.190772 0.321850
vt 0.257552 0.321539
vt 0.065772 0.290601
vt 0.128272 0.321850
vt 0.320052 0.259039
vt 0.382552 0.259039
vt 0.253272 0.290600
vt 0.190772 0.259350
vt 0.253272 0.259350
vt 0.065772 0.259350
vt 0.128272 0.259350
vt 0.445052 0.259039
vt 0.507552 0.259039
vt 0.030191 0.033441
vt 0.004984 0.002191
vt 0.030191 0.002191
vt 0.003272 0.259350
vt 0.030481 0.033441
vt 0.005274 0.002191
vt 0.030481 0.002191
vt 0.320052 0.290289
vt 0.257552 0.259039
vt 0.030481 0.093630
vt 0.030191 0.093630
vt 0.004984 0.064691
vt 0.030191 0.064691
vt 0.445052 0.321539
vt 0.507552 0.321539
vt 0.253272 0.350789
vt 0.004984 0.093630
vt 0.003272 0.350789
vt 0.005274 0.093630
vt 0.257552 0.290289
vt 0.005274 0.033441
vt 0.003272 0.290600
vt 0.004984 0.033441
vt 0.098744 0.446434
vt 0.089931 0.448449
vt 0.113930 0.512358
vt 0.091872 0.452990
vt 0.085127 0.452974
vt 0.015128 0.430284
vt -0.001676 0.404113
vt 0.030794 0.454683
vt 0.029488 0.460550
vt 0.050023 0.452692
vt 0.022301 0.432365
vt 0.061646 0.507361
vt 0.080852 0.502430
vt 0.034253 0.500134
vt 0.005193 0.501772
vt 0.005274 0.252191
vt 0.048733 0.418306
vt 0.037476 0.386612
vt 0.030940 0.402354
vt 0.030960 0.200779
vt 0.024918 0.201582
vt 0.026985 0.227815
vt 0.004984 0.252191
vt 0.034610 0.251615
vt 0.034676 0.251615
vt 0.037842 0.252489
vt 0.041227 0.228767
vt 0.128272 0.509350
vt 0.382552 0.509040
s 1
usemtl Material.002
f 30/1/30 4/2/4 22/3/22
f 4/4/4 23/5/23 22/6/22
f 28/7/28 102/8/89 101/9/88
f 107/10/94 106/11/93 21/12/21
f 16/13/16 1/14/1 13/15/13
f 15/16/15 110/17/97 112/18/99
f 17/19/17 12/20/12 20/21/20
f 18/22/18 9/23/9 19/24/19
f 20/25/20 25/26/25 29/27/29
f 15/28/15 26/29/26 27/30/27
f 2/31/2 27/30/27 21/32/21
f 10/33/10 14/34/14 12/20/12
f 11/35/11 13/15/13 9/23/9
f 25/26/25 14/36/14 28/7/28
f 8/37/8 29/27/29 23/38/23
f 7/39/7 19/24/19 3/40/3
f 4/41/4 20/21/20 8/42/8
f 26/29/26 17/43/17 30/1/30
f 52/44/36 80/45/67 72/44/59
f 23/5/23 71/6/58 22/6/22
f 55/46/39 78/47/65 58/47/42
f 26/29/26 64/1/51 63/29/50
f 24/48/24 68/7/55 28/7/28
f 51/49/46 77/50/64 57/50/41
f 21/12/21 70/51/57 24/51/24
f 56/52/40 77/50/64 76/52/63
f 25/26/25 66/27/53 29/27/29
f 55/46/39 79/53/66 75/46/62
f 44/54/39 99/55/86 95/54/82
f 33/56/32 86/57/73 37/57/28
f 45/58/40 97/59/84 96/58/83
f 35/60/26 83/61/70 91/60/78
f 32/62/23 84/63/71 31/63/31
f 50/64/45 97/59/84 46/59/41
f 32/65/23 88/66/75 85/65/72
f 31/67/31 83/61/70 39/61/35
f 44/54/39 98/68/85 47/68/42
f 34/69/25 86/57/73 89/69/76
f 45/58/40 19/70/19 9/71/9
f 42/72/37 18/73/18 7/74/7
f 44/54/39 16/75/16 11/76/11
f 50/64/45 13/77/13 1/78/1
f 46/59/41 9/71/9 13/77/13
f 48/55/43 11/76/11 18/73/18
f 43/79/38 1/80/1 5/81/5
f 47/68/42 5/82/5 16/75/16
f 41/83/36 7/84/7 3/85/3
f 49/86/44 3/87/3 19/70/19
f 60/45/44 31/67/31 39/61/35
f 52/88/36 32/62/23 31/63/31
f 58/47/42 33/56/32 37/57/28
f 54/89/38 40/90/21 33/91/32
f 59/53/43 34/69/25 38/66/34
f 57/50/41 35/60/26 36/92/33
f 51/49/46 36/92/33 40/93/21
f 55/46/39 37/57/28 34/69/25
f 53/94/47 38/66/34 32/65/23
f 56/52/40 39/61/35 35/60/26
f 63/29/50 80/45/67 76/52/63
f 65/38/52 79/53/66 73/94/60
f 67/26/54 78/47/65 75/46/62
f 62/32/49 77/50/64 61/49/48
f 69/30/56 76/52/63 77/50/64
f 66/27/53 75/46/62 79/53/66
f 70/51/57 61/95/48 74/89/61
f 68/7/55 74/96/61 78/47/65
f 71/6/58 73/97/60 72/88/59
f 64/1/51 72/44/59 80/45/67
f 23/38/23 66/27/53 65/38/52
f 53/94/47 79/53/66 59/53/43
f 22/3/22 64/1/51 30/1/30
f 52/88/36 73/97/60 53/97/47
f 25/26/25 68/7/55 67/26/54
f 56/52/40 80/45/67 60/45/44
f 54/96/38 78/47/65 74/96/61
f 21/32/21 69/30/56 62/32/49
f 54/89/38 61/95/48 51/95/46
f 26/29/26 69/30/56 27/30/27
f 83/61/70 92/98/79 100/86/87
f 84/63/71 93/99/80 92/83/79
f 86/57/73 94/100/81 98/68/85
f 87/91/74 81/101/68 94/79/81
f 88/66/75 95/54/82 99/55/86
f 90/92/77 96/58/83 97/59/84
f 82/93/69 97/59/84 81/64/68
f 89/69/76 98/68/85 95/54/82
f 85/65/72 99/55/86 93/72/80
f 91/60/78 100/86/87 96/58/83
f 40/90/21 87/91/74 33/91/32
f 43/79/38 81/101/68 50/101/45
f 34/69/25 88/66/75 38/66/34
f 43/100/38 98/68/85 94/100/81
f 35/60/26 90/92/77 36/92/33
f 45/58/40 100/86/87 49/86/44
f 41/83/36 93/99/80 42/99/37
f 40/93/21 90/92/77 82/93/69
f 42/72/37 99/55/86 48/55/43
f 41/98/36 100/86/87 92/98/79
f 14/102/14 112/103/99 105/104/92
f 111/105/98 105/104/92 112/103/99
f 110/106/97 6/107/6 105/108/92
f 107/109/94 110/106/97 106/110/93
f 107/109/94 108/111/95 6/107/6
f 113/112/100 107/109/94 6/107/6
f 105/104/92 103/113/90 104/114/91
f 6/107/6 108/111/95 103/113/90
f 103/113/90 108/111/95 102/115/89
f 102/115/89 108/111/95 101/116/88
f 101/108/88 108/108/95 109/108/96
f 30/1/30 17/43/17 4/2/4
f 4/4/4 8/117/8 23/5/23
f 28/7/28 14/36/14 105/118/92
f 104/119/91 103/120/90 102/8/89
f 28/7/28 105/118/92 104/119/91
f 101/9/88 24/48/24 28/7/28
f 28/7/28 104/119/91 102/8/89
f 21/12/21 24/51/24 101/121/88
f 109/122/96 108/123/95 107/10/94
f 21/12/21 101/121/88 109/122/96
f 106/11/93 2/124/2 21/12/21
f 21/12/21 109/122/96 107/10/94
f 16/13/16 5/125/5 1/14/1
f 112/18/99 14/34/14 15/16/15
f 15/16/15 2/126/2 106/127/93
f 110/17/97 111/128/98 112/18/99
f 15/16/15 106/127/93 110/17/97
f 17/19/17 10/33/10 12/20/12
f 18/22/18 11/35/11 9/23/9
f 20/25/20 12/129/12 25/26/25
f 15/28/15 10/130/10 26/29/26
f 2/31/2 15/28/15 27/30/27
f 10/33/10 15/16/15 14/34/14
f 11/35/11 16/13/16 13/15/13
f 25/26/25 12/129/12 14/36/14
f 8/37/8 20/25/20 29/27/29
f 7/39/7 18/22/18 19/24/19
f 4/41/4 17/19/17 20/21/20
f 26/29/26 10/130/10 17/43/17
f 52/44/36 60/45/44 80/45/67
f 23/5/23 65/5/52 71/6/58
f 55/46/39 75/46/62 78/47/65
f 26/29/26 30/1/30 64/1/51
f 24/48/24 70/48/57 68/7/55
f 51/49/46 61/49/48 77/50/64
f 21/12/21 62/12/49 70/51/57
f 56/52/40 57/50/41 77/50/64
f 25/26/25 67/26/54 66/27/53
f 55/46/39 59/53/43 79/53/66
f 44/54/39 48/55/43 99/55/86
f 33/56/32 87/56/74 86/57/73
f 45/58/40 46/59/41 97/59/84
f 35/60/26 39/61/35 83/61/70
f 32/62/23 85/62/72 84/63/71
f 50/64/45 81/64/68 97/59/84
f 32/65/23 38/66/34 88/66/75
f 31/67/31 84/67/71 83/61/70
f 44/54/39 95/54/82 98/68/85
f 34/69/25 37/57/28 86/57/73
f 45/58/40 49/86/44 19/70/19
f 42/72/37 48/55/43 18/73/18
f 44/54/39 47/68/42 16/75/16
f 50/64/45 46/59/41 13/77/13
f 46/59/41 45/58/40 9/71/9
f 48/55/43 44/54/39 11/76/11
f 43/79/38 50/101/45 1/80/1
f 47/68/42 43/100/38 5/82/5
f 41/83/36 42/99/37 7/84/7
f 49/86/44 41/98/36 3/87/3
f 60/45/44 52/44/36 31/67/31
f 52/88/36 53/97/47 32/62/23
f 58/47/42 54/96/38 33/56/32
f 54/89/38 51/95/46 40/90/21
f 59/53/43 55/46/39 34/69/25
f 57/50/41 56/52/40 35/60/26
f 51/49/46 57/50/41 36/92/33
f 55/46/39 58/47/42 37/57/28
f 53/94/47 59/53/43 38/66/34
f 56/52/40 60/45/44 39/61/35
f 63/29/50 64/1/51 80/45/67
f 65/38/52 66/27/53 79/53/66
f 67/26/54 68/7/55 78/47/65
f 62/32/49 69/30/56 77/50/64
f 69/30/56 63/29/50 76/52/63
f 66/27/53 67/26/54 75/46/62
f 70/51/57 62/12/49 61/95/48
f 68/7/55 70/48/57 74/96/61
f 71/6/58 65/5/52 73/97/60
f 64/1/51 71/3/58 72/44/59
f 23/38/23 29/27/29 66/27/53
f 53/94/47 73/94/60 79/53/66
f 22/3/22 71/3/58 64/1/51
f 52/88/36 72/88/59 73/97/60
f 25/26/25 28/7/28 68/7/55
f 56/52/40 76/52/63 80/45/67
f 54/96/38 58/47/42 78/47/65
f 21/32/21 27/30/27 69/30/56
f 54/89/38 74/89/61 61/95/48
f 26/29/26 63/29/50 69/30/56
f 83/61/70 84/67/71 92/98/79
f 84/63/71 85/62/72 93/99/80
f 86/57/73 87/56/74 94/100/81
f 87/91/74 82/90/69 81/101/68
f 88/66/75 89/69/76 95/54/82
f 90/92/77 91/60/78 96/58/83
f 82/93/69 90/92/77 97/59/84
f 89/69/76 86/57/73 98/68/85
f 85/65/72 88/66/75 99/55/86
f 91/60/78 83/61/70 100/86/87
f 40/90/21 82/90/69 87/91/74
f 43/79/38 94/79/81 81/101/68
f 34/69/25 89/69/76 88/66/75
f 43/100/38 47/68/42 98/68/85
f 35/60/26 91/60/78 90/92/77
f 45/58/40 96/58/83 100/86/87
f 41/83/36 92/83/79 93/99/80
f 40/93/21 36/92/33 90/92/77
f 42/72/37 93/72/80 99/55/86
f 41/98/36 49/86/44 100/86/87
f 105/108/92 111/105/98 110/106/97
f 110/106/97 113/112/100 6/107/6
f 113/112/100 110/106/97 107/109/94
f 105/104/92 6/107/6 103/113/90
